<svg width="532" height="200" viewBox="0 0 532 200" fill="none" xmlns="http://www.w3.org/2000/svg">
<rect x="0.236206" width="531.528" height="200" fill="url(#paint0_linear_267_14)"/>
<g filter="url(#filter0_d_267_14)">
<mask id="path-2-outside-1_267_14" maskUnits="userSpaceOnUse" x="192.466" y="77.5" width="228" height="47" fill="black">
<rect fill="white" x="192.466" y="77.5" width="228" height="47"/>
<path d="M195.857 113.5C194.763 113.5 194.216 112.914 194.216 111.742V81.6484C194.216 80.4766 194.763 79.8906 195.857 79.8906H204.036C211.224 79.8906 216.083 81.3438 218.615 84.25C221.161 87.1562 222.435 91.2891 222.435 96.6484C222.435 102.008 221.161 106.156 218.615 109.094C216.083 112.031 211.224 113.5 204.036 113.5H195.857ZM201.06 107.688H203.591C208.435 107.688 211.568 106.789 212.99 104.992C214.411 103.18 215.122 100.398 215.122 96.6484C215.122 92.8984 214.411 90.1328 212.99 88.3516C211.568 86.5547 208.435 85.6562 203.591 85.6562H201.06V107.688ZM229.044 113.5C228.107 113.5 227.638 113.031 227.638 112.094V90.2969C227.638 89.3594 228.107 88.8906 229.044 88.8906H232.794C233.732 88.8906 234.201 89.3594 234.201 90.2969V112.094C234.201 113.031 233.732 113.5 232.794 113.5H229.044ZM229.044 85.2812C228.107 85.2812 227.638 84.8125 227.638 83.875V80.875C227.638 79.9375 228.107 79.4688 229.044 79.4688H232.794C233.732 79.4688 234.201 79.9375 234.201 80.875V83.875C234.201 84.8125 233.732 85.2812 232.794 85.2812H229.044ZM239.263 101.195C239.263 97.2109 240.263 94.0859 242.263 91.8203C244.263 89.5547 247.333 88.4219 251.474 88.4219C253.896 88.4219 255.779 88.7422 257.122 89.3828C258.466 90.0234 259.544 90.9609 260.357 92.1953C260.841 92.9297 260.763 93.5078 260.122 93.9297L257.638 95.5703C256.935 96.0391 256.318 95.8594 255.786 95.0312C255.521 94.625 255.013 94.1875 254.263 93.7188C253.513 93.25 252.583 93.0156 251.474 93.0156C249.708 93.0156 248.388 93.6406 247.513 94.8906C246.638 96.125 246.201 98.2266 246.201 101.195C246.201 104.164 246.638 106.273 247.513 107.523C248.388 108.758 249.708 109.375 251.474 109.375C252.74 109.375 253.763 109.109 254.544 108.578C255.326 108.047 256.06 107.359 256.747 106.516C257.341 105.797 257.966 105.695 258.622 106.211L260.802 107.922C261.458 108.438 261.497 109.125 260.919 109.984C260.31 110.891 259.271 111.781 257.802 112.656C256.349 113.531 254.24 113.969 251.474 113.969C247.333 113.969 244.263 112.836 242.263 110.57C240.263 108.305 239.263 105.18 239.263 101.195ZM265.208 93.5781C264.286 93.5781 263.826 93.1875 263.826 92.4062V90.0625C263.826 89.2812 264.286 88.8906 265.208 88.8906H266.802V88.0703C266.802 87.3672 266.966 86.7266 267.294 86.1484L269.099 82.9844C269.443 82.3906 269.849 82.0938 270.318 82.0938H271.958C272.896 82.0938 273.365 82.5625 273.365 83.5V88.8906H277.161C278.083 88.8906 278.544 89.2812 278.544 90.0625V92.4062C278.544 93.1875 278.083 93.5781 277.161 93.5781H273.365V105.203C273.365 106.797 273.474 107.945 273.693 108.648C273.927 109.336 274.521 109.68 275.474 109.68C275.958 109.68 276.505 109.602 277.115 109.445C277.724 109.273 278.201 109.109 278.544 108.953C279.091 108.703 279.451 108.883 279.622 109.492L280.326 112.164C280.466 112.695 280.263 113.086 279.716 113.336C279.201 113.57 278.49 113.781 277.583 113.969C276.693 114.172 275.794 114.273 274.888 114.273C272.654 114.273 270.747 113.812 269.169 112.891C267.591 111.969 266.802 110.07 266.802 107.195V93.5781H265.208ZM286.138 113.5C285.201 113.5 284.732 113.031 284.732 112.094V90.2969C284.732 89.3594 285.201 88.8906 286.138 88.8906H289.888C290.826 88.8906 291.294 89.3594 291.294 90.2969V112.094C291.294 113.031 290.826 113.5 289.888 113.5H286.138ZM286.138 85.2812C285.201 85.2812 284.732 84.8125 284.732 83.875V80.875C284.732 79.9375 285.201 79.4688 286.138 79.4688H289.888C290.826 79.4688 291.294 79.9375 291.294 80.875V83.875C291.294 84.8125 290.826 85.2812 289.888 85.2812H286.138ZM296.357 101.195C296.357 97.2109 297.38 94.0859 299.427 91.8203C301.49 89.5547 304.552 88.4219 308.615 88.4219C312.677 88.4219 315.732 89.5547 317.779 91.8203C319.841 94.0859 320.872 97.2109 320.872 101.195C320.872 105.18 319.841 108.305 317.779 110.57C315.732 112.836 312.677 113.969 308.615 113.969C304.552 113.969 301.49 112.836 299.427 110.57C297.38 108.305 296.357 105.18 296.357 101.195ZM303.294 101.195C303.294 104.164 303.747 106.273 304.654 107.523C305.576 108.758 306.896 109.375 308.615 109.375C310.333 109.375 311.646 108.758 312.552 107.523C313.474 106.273 313.935 104.164 313.935 101.195C313.935 98.2266 313.474 96.125 312.552 94.8906C311.646 93.6406 310.333 93.0156 308.615 93.0156C306.896 93.0156 305.576 93.6406 304.654 94.8906C303.747 96.125 303.294 98.2266 303.294 101.195ZM327.341 113.5C326.404 113.5 325.935 113.031 325.935 112.094V90.2969C325.935 89.3594 326.404 88.8906 327.341 88.8906H331.044C331.982 88.8906 332.451 89.3594 332.451 90.2969V91.6562H332.544C333.263 90.4219 334.177 89.5781 335.286 89.125C336.396 88.6562 337.732 88.4219 339.294 88.4219C341.732 88.4219 343.747 89.1875 345.341 90.7188C346.935 92.25 347.732 95.0469 347.732 99.1094V112.094C347.732 113.031 347.263 113.5 346.326 113.5H342.576C341.638 113.5 341.169 113.031 341.169 112.094V100.797C341.169 97.3906 340.935 95.2422 340.466 94.3516C339.997 93.4609 338.99 93.0156 337.443 93.0156C335.802 93.0156 334.568 93.6562 333.74 94.9375C332.911 96.2031 332.497 98.8438 332.497 102.859V112.094C332.497 113.031 332.029 113.5 331.091 113.5H327.341ZM352.747 106.938C352.747 103.812 354.24 101.547 357.224 100.141C360.208 98.7344 363.615 97.9844 367.443 97.8906V96.9531C367.443 95.5156 367.083 94.5 366.365 93.9062C365.646 93.3125 364.646 93.0156 363.365 93.0156C362.458 93.0156 361.654 93.1484 360.951 93.4141C360.263 93.6641 359.661 93.9609 359.146 94.3047C358.646 94.6328 358.193 94.9688 357.786 95.3125C357.068 95.9375 356.474 95.9688 356.005 95.4062L354.06 93.0156C353.576 92.4219 353.693 91.8125 354.411 91.1875C354.958 90.7031 355.591 90.2812 356.31 89.9219C357.044 89.5625 358.013 89.2266 359.216 88.9141C360.419 88.5859 361.982 88.4219 363.904 88.4219C367.154 88.4219 369.646 89.1719 371.38 90.6719C373.13 92.1719 374.005 94.3828 374.005 97.3047V112.094C374.005 113.031 373.536 113.5 372.599 113.5H368.755C367.911 113.5 367.49 113.031 367.49 112.094V111.391H367.443C366.521 112.281 365.411 112.938 364.115 113.359C362.833 113.766 361.654 113.969 360.576 113.969C358.013 113.969 356.068 113.344 354.74 112.094C353.411 110.828 352.747 109.109 352.747 106.938ZM359.685 106.797C359.685 107.344 359.794 107.82 360.013 108.227C360.232 108.617 360.576 108.906 361.044 109.094C361.513 109.281 362.036 109.375 362.615 109.375C363.411 109.375 364.185 109.266 364.935 109.047C365.685 108.828 366.521 108.312 367.443 107.5V102.414C364.818 102.711 363.06 103.094 362.169 103.562C361.279 104.031 360.638 104.516 360.247 105.016C359.872 105.516 359.685 106.109 359.685 106.797ZM381.81 113.5C380.872 113.5 380.404 113.031 380.404 112.094V90.2969C380.404 89.3594 380.872 88.8906 381.81 88.8906H385.513C386.451 88.8906 386.919 89.3594 386.919 90.2969V92.2188H387.013C387.419 91.2188 388.099 90.3359 389.052 89.5703C390.005 88.8047 391.13 88.4219 392.427 88.4219C393.318 88.4219 394.052 88.5312 394.63 88.75C395.177 88.9531 395.388 89.3281 395.263 89.875L394.607 92.6641C394.466 93.2891 394.044 93.4766 393.341 93.2266C392.935 93.0859 392.544 93.0156 392.169 93.0156C390.669 93.0156 389.427 93.9141 388.443 95.7109C387.458 97.5078 386.966 100.125 386.966 103.562V112.094C386.966 113.031 386.497 113.5 385.56 113.5H381.81ZM397.302 90.7188C396.88 89.5 397.138 88.8906 398.076 88.8906H402.271C402.99 88.8906 403.458 89.2891 403.677 90.0859L407.216 103.188C407.388 103.797 407.536 104.586 407.661 105.555C407.802 106.508 407.872 107.117 407.872 107.383H408.013C408.201 106.555 408.333 105.898 408.411 105.414C408.505 104.914 408.747 103.953 409.138 102.531L412.49 90.0859C412.708 89.2891 413.177 88.8906 413.896 88.8906H418.091C419.013 88.8906 419.271 89.5 418.865 90.7188L410.966 114.484C410.044 117.266 408.911 119.438 407.568 121C406.224 122.562 404.357 123.344 401.966 123.344C400.654 123.344 399.482 123.234 398.451 123.016C397.857 122.891 397.63 122.484 397.771 121.797L398.286 119.219C398.427 118.547 398.826 118.312 399.482 118.516C399.966 118.672 400.419 118.75 400.841 118.75C402.107 118.75 403.068 118.148 403.724 116.945C404.396 115.742 404.841 114.711 405.06 113.852L405.13 113.5L397.302 90.7188Z"/>
</mask>
<path d="M195.857 113.5C194.763 113.5 194.216 112.914 194.216 111.742V81.6484C194.216 80.4766 194.763 79.8906 195.857 79.8906H204.036C211.224 79.8906 216.083 81.3438 218.615 84.25C221.161 87.1562 222.435 91.2891 222.435 96.6484C222.435 102.008 221.161 106.156 218.615 109.094C216.083 112.031 211.224 113.5 204.036 113.5H195.857ZM201.06 107.688H203.591C208.435 107.688 211.568 106.789 212.99 104.992C214.411 103.18 215.122 100.398 215.122 96.6484C215.122 92.8984 214.411 90.1328 212.99 88.3516C211.568 86.5547 208.435 85.6562 203.591 85.6562H201.06V107.688ZM229.044 113.5C228.107 113.5 227.638 113.031 227.638 112.094V90.2969C227.638 89.3594 228.107 88.8906 229.044 88.8906H232.794C233.732 88.8906 234.201 89.3594 234.201 90.2969V112.094C234.201 113.031 233.732 113.5 232.794 113.5H229.044ZM229.044 85.2812C228.107 85.2812 227.638 84.8125 227.638 83.875V80.875C227.638 79.9375 228.107 79.4688 229.044 79.4688H232.794C233.732 79.4688 234.201 79.9375 234.201 80.875V83.875C234.201 84.8125 233.732 85.2812 232.794 85.2812H229.044ZM239.263 101.195C239.263 97.2109 240.263 94.0859 242.263 91.8203C244.263 89.5547 247.333 88.4219 251.474 88.4219C253.896 88.4219 255.779 88.7422 257.122 89.3828C258.466 90.0234 259.544 90.9609 260.357 92.1953C260.841 92.9297 260.763 93.5078 260.122 93.9297L257.638 95.5703C256.935 96.0391 256.318 95.8594 255.786 95.0312C255.521 94.625 255.013 94.1875 254.263 93.7188C253.513 93.25 252.583 93.0156 251.474 93.0156C249.708 93.0156 248.388 93.6406 247.513 94.8906C246.638 96.125 246.201 98.2266 246.201 101.195C246.201 104.164 246.638 106.273 247.513 107.523C248.388 108.758 249.708 109.375 251.474 109.375C252.74 109.375 253.763 109.109 254.544 108.578C255.326 108.047 256.06 107.359 256.747 106.516C257.341 105.797 257.966 105.695 258.622 106.211L260.802 107.922C261.458 108.438 261.497 109.125 260.919 109.984C260.31 110.891 259.271 111.781 257.802 112.656C256.349 113.531 254.24 113.969 251.474 113.969C247.333 113.969 244.263 112.836 242.263 110.57C240.263 108.305 239.263 105.18 239.263 101.195ZM265.208 93.5781C264.286 93.5781 263.826 93.1875 263.826 92.4062V90.0625C263.826 89.2812 264.286 88.8906 265.208 88.8906H266.802V88.0703C266.802 87.3672 266.966 86.7266 267.294 86.1484L269.099 82.9844C269.443 82.3906 269.849 82.0938 270.318 82.0938H271.958C272.896 82.0938 273.365 82.5625 273.365 83.5V88.8906H277.161C278.083 88.8906 278.544 89.2812 278.544 90.0625V92.4062C278.544 93.1875 278.083 93.5781 277.161 93.5781H273.365V105.203C273.365 106.797 273.474 107.945 273.693 108.648C273.927 109.336 274.521 109.68 275.474 109.68C275.958 109.68 276.505 109.602 277.115 109.445C277.724 109.273 278.201 109.109 278.544 108.953C279.091 108.703 279.451 108.883 279.622 109.492L280.326 112.164C280.466 112.695 280.263 113.086 279.716 113.336C279.201 113.57 278.49 113.781 277.583 113.969C276.693 114.172 275.794 114.273 274.888 114.273C272.654 114.273 270.747 113.812 269.169 112.891C267.591 111.969 266.802 110.07 266.802 107.195V93.5781H265.208ZM286.138 113.5C285.201 113.5 284.732 113.031 284.732 112.094V90.2969C284.732 89.3594 285.201 88.8906 286.138 88.8906H289.888C290.826 88.8906 291.294 89.3594 291.294 90.2969V112.094C291.294 113.031 290.826 113.5 289.888 113.5H286.138ZM286.138 85.2812C285.201 85.2812 284.732 84.8125 284.732 83.875V80.875C284.732 79.9375 285.201 79.4688 286.138 79.4688H289.888C290.826 79.4688 291.294 79.9375 291.294 80.875V83.875C291.294 84.8125 290.826 85.2812 289.888 85.2812H286.138ZM296.357 101.195C296.357 97.2109 297.38 94.0859 299.427 91.8203C301.49 89.5547 304.552 88.4219 308.615 88.4219C312.677 88.4219 315.732 89.5547 317.779 91.8203C319.841 94.0859 320.872 97.2109 320.872 101.195C320.872 105.18 319.841 108.305 317.779 110.57C315.732 112.836 312.677 113.969 308.615 113.969C304.552 113.969 301.49 112.836 299.427 110.57C297.38 108.305 296.357 105.18 296.357 101.195ZM303.294 101.195C303.294 104.164 303.747 106.273 304.654 107.523C305.576 108.758 306.896 109.375 308.615 109.375C310.333 109.375 311.646 108.758 312.552 107.523C313.474 106.273 313.935 104.164 313.935 101.195C313.935 98.2266 313.474 96.125 312.552 94.8906C311.646 93.6406 310.333 93.0156 308.615 93.0156C306.896 93.0156 305.576 93.6406 304.654 94.8906C303.747 96.125 303.294 98.2266 303.294 101.195ZM327.341 113.5C326.404 113.5 325.935 113.031 325.935 112.094V90.2969C325.935 89.3594 326.404 88.8906 327.341 88.8906H331.044C331.982 88.8906 332.451 89.3594 332.451 90.2969V91.6562H332.544C333.263 90.4219 334.177 89.5781 335.286 89.125C336.396 88.6562 337.732 88.4219 339.294 88.4219C341.732 88.4219 343.747 89.1875 345.341 90.7188C346.935 92.25 347.732 95.0469 347.732 99.1094V112.094C347.732 113.031 347.263 113.5 346.326 113.5H342.576C341.638 113.5 341.169 113.031 341.169 112.094V100.797C341.169 97.3906 340.935 95.2422 340.466 94.3516C339.997 93.4609 338.99 93.0156 337.443 93.0156C335.802 93.0156 334.568 93.6562 333.74 94.9375C332.911 96.2031 332.497 98.8438 332.497 102.859V112.094C332.497 113.031 332.029 113.5 331.091 113.5H327.341ZM352.747 106.938C352.747 103.812 354.24 101.547 357.224 100.141C360.208 98.7344 363.615 97.9844 367.443 97.8906V96.9531C367.443 95.5156 367.083 94.5 366.365 93.9062C365.646 93.3125 364.646 93.0156 363.365 93.0156C362.458 93.0156 361.654 93.1484 360.951 93.4141C360.263 93.6641 359.661 93.9609 359.146 94.3047C358.646 94.6328 358.193 94.9688 357.786 95.3125C357.068 95.9375 356.474 95.9688 356.005 95.4062L354.06 93.0156C353.576 92.4219 353.693 91.8125 354.411 91.1875C354.958 90.7031 355.591 90.2812 356.31 89.9219C357.044 89.5625 358.013 89.2266 359.216 88.9141C360.419 88.5859 361.982 88.4219 363.904 88.4219C367.154 88.4219 369.646 89.1719 371.38 90.6719C373.13 92.1719 374.005 94.3828 374.005 97.3047V112.094C374.005 113.031 373.536 113.5 372.599 113.5H368.755C367.911 113.5 367.49 113.031 367.49 112.094V111.391H367.443C366.521 112.281 365.411 112.938 364.115 113.359C362.833 113.766 361.654 113.969 360.576 113.969C358.013 113.969 356.068 113.344 354.74 112.094C353.411 110.828 352.747 109.109 352.747 106.938ZM359.685 106.797C359.685 107.344 359.794 107.82 360.013 108.227C360.232 108.617 360.576 108.906 361.044 109.094C361.513 109.281 362.036 109.375 362.615 109.375C363.411 109.375 364.185 109.266 364.935 109.047C365.685 108.828 366.521 108.312 367.443 107.5V102.414C364.818 102.711 363.06 103.094 362.169 103.562C361.279 104.031 360.638 104.516 360.247 105.016C359.872 105.516 359.685 106.109 359.685 106.797ZM381.81 113.5C380.872 113.5 380.404 113.031 380.404 112.094V90.2969C380.404 89.3594 380.872 88.8906 381.81 88.8906H385.513C386.451 88.8906 386.919 89.3594 386.919 90.2969V92.2188H387.013C387.419 91.2188 388.099 90.3359 389.052 89.5703C390.005 88.8047 391.13 88.4219 392.427 88.4219C393.318 88.4219 394.052 88.5312 394.63 88.75C395.177 88.9531 395.388 89.3281 395.263 89.875L394.607 92.6641C394.466 93.2891 394.044 93.4766 393.341 93.2266C392.935 93.0859 392.544 93.0156 392.169 93.0156C390.669 93.0156 389.427 93.9141 388.443 95.7109C387.458 97.5078 386.966 100.125 386.966 103.562V112.094C386.966 113.031 386.497 113.5 385.56 113.5H381.81ZM397.302 90.7188C396.88 89.5 397.138 88.8906 398.076 88.8906H402.271C402.99 88.8906 403.458 89.2891 403.677 90.0859L407.216 103.188C407.388 103.797 407.536 104.586 407.661 105.555C407.802 106.508 407.872 107.117 407.872 107.383H408.013C408.201 106.555 408.333 105.898 408.411 105.414C408.505 104.914 408.747 103.953 409.138 102.531L412.49 90.0859C412.708 89.2891 413.177 88.8906 413.896 88.8906H418.091C419.013 88.8906 419.271 89.5 418.865 90.7188L410.966 114.484C410.044 117.266 408.911 119.438 407.568 121C406.224 122.562 404.357 123.344 401.966 123.344C400.654 123.344 399.482 123.234 398.451 123.016C397.857 122.891 397.63 122.484 397.771 121.797L398.286 119.219C398.427 118.547 398.826 118.312 399.482 118.516C399.966 118.672 400.419 118.75 400.841 118.75C402.107 118.75 403.068 118.148 403.724 116.945C404.396 115.742 404.841 114.711 405.06 113.852L405.13 113.5L397.302 90.7188Z" fill="white"/>
<path d="M218.615 84.25L217.86 84.9068L217.862 84.9091L218.615 84.25ZM218.615 109.094L217.859 108.439L217.857 108.441L218.615 109.094ZM201.06 107.688H200.06V108.688H201.06V107.688ZM212.99 104.992L213.774 105.613L213.776 105.609L212.99 104.992ZM212.99 88.3516L212.205 88.9721L212.208 88.9754L212.99 88.3516ZM201.06 85.6562V84.6562H200.06V85.6562H201.06ZM195.857 112.5C195.482 112.5 195.38 112.403 195.357 112.378C195.322 112.34 195.216 112.19 195.216 111.742H193.216C193.216 112.466 193.384 113.195 193.895 113.743C194.419 114.304 195.137 114.5 195.857 114.5V112.5ZM195.216 111.742V81.6484H193.216V111.742H195.216ZM195.216 81.6484C195.216 81.2001 195.322 81.0501 195.357 81.0124C195.38 80.9876 195.482 80.8906 195.857 80.8906V78.8906C195.137 78.8906 194.419 79.0866 193.895 79.6478C193.384 80.196 193.216 80.9249 193.216 81.6484H195.216ZM195.857 80.8906H204.036V78.8906H195.857V80.8906ZM204.036 80.8906C211.164 80.8906 215.63 82.3464 217.86 84.9068L219.369 83.5932C216.536 80.3411 211.284 78.8906 204.036 78.8906V80.8906ZM217.862 84.9091C220.197 87.573 221.435 91.4378 221.435 96.6484H223.435C223.435 91.1403 222.126 86.7395 219.367 83.5909L217.862 84.9091ZM221.435 96.6484C221.435 101.858 220.197 105.742 217.859 108.439L219.37 109.749C222.126 106.571 223.435 102.157 223.435 96.6484H221.435ZM217.857 108.441C215.626 111.03 211.162 112.5 204.036 112.5V114.5C211.286 114.5 216.54 113.033 219.372 109.747L217.857 108.441ZM204.036 112.5H195.857V114.5H204.036V112.5ZM201.06 108.688H203.591V106.688H201.06V108.688ZM203.591 108.688C206.066 108.688 208.161 108.459 209.849 107.975C211.535 107.492 212.889 106.731 213.774 105.613L212.205 104.372C211.669 105.05 210.745 105.637 209.298 106.052C207.853 106.467 205.96 106.688 203.591 106.688V108.688ZM213.776 105.609C215.399 103.54 216.122 100.492 216.122 96.6484H214.122C214.122 100.304 213.423 102.819 212.203 104.375L213.776 105.609ZM216.122 96.6484C216.122 92.8066 215.4 89.7687 213.771 87.7277L212.208 88.9754C213.423 90.497 214.122 92.9903 214.122 96.6484H216.122ZM213.774 87.731C212.889 86.6126 211.535 85.8522 209.849 85.3688C208.161 84.8847 206.066 84.6562 203.591 84.6562V86.6562C205.96 86.6562 207.853 86.877 209.298 87.2913C210.745 87.7064 211.669 88.2937 212.205 88.9721L213.774 87.731ZM203.591 84.6562H201.06V86.6562H203.591V84.6562ZM200.06 85.6562V107.688H202.06V85.6562H200.06ZM229.044 112.5C228.73 112.5 228.677 112.422 228.697 112.441C228.716 112.461 228.638 112.408 228.638 112.094H226.638C226.638 112.717 226.794 113.367 227.282 113.856C227.771 114.344 228.421 114.5 229.044 114.5V112.5ZM228.638 112.094V90.2969H226.638V112.094H228.638ZM228.638 90.2969C228.638 89.9823 228.716 89.93 228.697 89.9493C228.677 89.9686 228.73 89.8906 229.044 89.8906V87.8906C228.421 87.8906 227.771 88.047 227.282 88.5351C226.794 89.0231 226.638 89.674 226.638 90.2969H228.638ZM229.044 89.8906H232.794V87.8906H229.044V89.8906ZM232.794 89.8906C233.109 89.8906 233.161 89.9686 233.142 89.9493C233.123 89.93 233.201 89.9823 233.201 90.2969H235.201C235.201 89.674 235.044 89.0231 234.556 88.5351C234.068 88.047 233.417 87.8906 232.794 87.8906V89.8906ZM233.201 90.2969V112.094H235.201V90.2969H233.201ZM233.201 112.094C233.201 112.408 233.123 112.461 233.142 112.441C233.161 112.422 233.109 112.5 232.794 112.5V114.5C233.417 114.5 234.068 114.344 234.556 113.856C235.044 113.367 235.201 112.717 235.201 112.094H233.201ZM232.794 112.5H229.044V114.5H232.794V112.5ZM229.044 84.2812C228.73 84.2812 228.677 84.2033 228.697 84.2226C228.716 84.2419 228.638 84.1896 228.638 83.875H226.638C226.638 84.4979 226.794 85.1487 227.282 85.6368C227.771 86.1248 228.421 86.2812 229.044 86.2812V84.2812ZM228.638 83.875V80.875H226.638V83.875H228.638ZM228.638 80.875C228.638 80.5604 228.716 80.5081 228.697 80.5274C228.677 80.5467 228.73 80.4688 229.044 80.4688V78.4688C228.421 78.4688 227.771 78.6252 227.282 79.1132C226.794 79.6013 226.638 80.2521 226.638 80.875H228.638ZM229.044 80.4688H232.794V78.4688H229.044V80.4688ZM232.794 80.4688C233.109 80.4688 233.161 80.5467 233.142 80.5274C233.123 80.5081 233.201 80.5604 233.201 80.875H235.201C235.201 80.2521 235.044 79.6013 234.556 79.1132C234.068 78.6252 233.417 78.4688 232.794 78.4688V80.4688ZM233.201 80.875V83.875H235.201V80.875H233.201ZM233.201 83.875C233.201 84.1896 233.123 84.2419 233.142 84.2226C233.161 84.2033 233.109 84.2812 232.794 84.2812V86.2812C233.417 86.2812 234.068 86.1248 234.556 85.6368C235.044 85.1487 235.201 84.4979 235.201 83.875H233.201ZM232.794 84.2812H229.044V86.2812H232.794V84.2812ZM260.357 92.1953L259.521 92.7451L259.522 92.7459L260.357 92.1953ZM260.122 93.9297L259.572 93.0945L259.571 93.0952L260.122 93.9297ZM257.638 95.5703L257.087 94.7358L257.083 94.7383L257.638 95.5703ZM255.786 95.0312L256.628 94.4913L256.623 94.484L255.786 95.0312ZM247.513 94.8906L248.329 95.4689L248.332 95.4641L247.513 94.8906ZM247.513 107.523L246.694 108.097L246.697 108.102L247.513 107.523ZM256.747 106.516L255.976 105.879L255.972 105.884L256.747 106.516ZM258.622 106.211L258.005 106.997L258.005 106.998L258.622 106.211ZM260.802 107.922L261.42 107.136L261.42 107.135L260.802 107.922ZM260.919 109.984L260.09 109.426L260.089 109.426L260.919 109.984ZM257.802 112.656L257.29 111.797L257.286 111.8L257.802 112.656ZM240.263 101.195C240.263 97.3756 241.22 94.5134 243.013 92.4821L241.513 91.1585C239.306 93.6585 238.263 97.0462 238.263 101.195H240.263ZM243.013 92.4821C244.76 90.5026 247.509 89.4219 251.474 89.4219V87.4219C247.157 87.4219 243.766 88.6068 241.513 91.1585L243.013 92.4821ZM251.474 89.4219C253.829 89.4219 255.541 89.7369 256.692 90.2855L257.553 88.4801C256.016 87.7475 253.962 87.4219 251.474 87.4219V89.4219ZM256.692 90.2855C257.872 90.8482 258.81 91.6643 259.521 92.7451L261.192 91.6455C260.278 90.2576 259.06 89.1987 257.553 88.4801L256.692 90.2855ZM259.522 92.7459C259.696 93.0104 259.664 93.0923 259.67 93.0458C259.672 93.0352 259.675 93.0237 259.679 93.0131C259.683 93.0029 259.687 92.9985 259.685 93.0003C259.682 93.0052 259.655 93.0403 259.572 93.0945L260.672 94.7649C261.153 94.4481 261.563 93.9728 261.652 93.3136C261.737 92.6889 261.501 92.1146 261.192 91.6447L259.522 92.7459ZM259.571 93.0952L257.087 94.7358L258.189 96.4048L260.673 94.7642L259.571 93.0952ZM257.083 94.7383C256.986 94.803 256.93 94.8197 256.913 94.8234C256.902 94.8257 256.913 94.8228 256.927 94.827C256.947 94.8326 256.83 94.8057 256.628 94.4913L254.945 95.5712C255.274 96.0849 255.732 96.5619 256.368 96.7472C257.043 96.9438 257.678 96.7454 258.193 96.4024L257.083 94.7383ZM256.623 94.484C256.238 93.894 255.581 93.3633 254.793 92.8708L253.733 94.5667C254.445 95.0117 254.804 95.356 254.949 95.5785L256.623 94.484ZM254.793 92.8708C253.848 92.2802 252.723 92.0156 251.474 92.0156V94.0156C252.443 94.0156 253.178 94.2198 253.733 94.5667L254.793 92.8708ZM251.474 92.0156C249.441 92.0156 247.787 92.7549 246.694 94.3172L248.332 95.4641C248.989 94.5264 249.976 94.0156 251.474 94.0156V92.0156ZM246.697 94.3123C245.633 95.8142 245.201 98.1867 245.201 101.195H247.201C247.201 98.2665 247.643 96.4358 248.329 95.4689L246.697 94.3123ZM245.201 101.195C245.201 104.206 245.633 106.582 246.694 108.097L248.332 106.95C247.643 105.965 247.201 104.122 247.201 101.195H245.201ZM246.697 108.102C247.793 109.647 249.446 110.375 251.474 110.375V108.375C249.971 108.375 248.983 107.868 248.329 106.945L246.697 108.102ZM251.474 110.375C252.873 110.375 254.112 110.082 255.107 109.405L253.982 107.751C253.414 108.137 252.606 108.375 251.474 108.375V110.375ZM255.107 109.405C255.979 108.812 256.783 108.055 257.523 107.147L255.972 105.884C255.337 106.664 254.672 107.282 253.982 107.751L255.107 109.405ZM257.518 107.153C257.732 106.894 257.84 106.885 257.822 106.887C257.812 106.889 257.81 106.885 257.829 106.891C257.853 106.899 257.912 106.924 258.005 106.997L259.24 105.425C258.766 105.052 258.17 104.805 257.501 104.913C256.858 105.018 256.356 105.419 255.976 105.879L257.518 107.153ZM258.005 106.998L260.185 108.708L261.42 107.135L259.24 105.424L258.005 106.998ZM260.184 108.708C260.268 108.774 260.301 108.821 260.313 108.841C260.322 108.857 260.324 108.867 260.325 108.881C260.327 108.921 260.315 109.091 260.09 109.426L261.749 110.543C262.101 110.019 262.359 109.414 262.322 108.767C262.283 108.077 261.922 107.53 261.42 107.136L260.184 108.708ZM260.089 109.426C259.596 110.16 258.696 110.959 257.29 111.797L258.314 113.515C259.845 112.603 261.024 111.621 261.749 110.542L260.089 109.426ZM257.286 111.8C256.058 112.539 254.161 112.969 251.474 112.969V114.969C254.318 114.969 256.64 114.523 258.318 113.513L257.286 111.8ZM251.474 112.969C247.509 112.969 244.76 111.888 243.013 109.909L241.513 111.232C243.766 113.784 247.157 114.969 251.474 114.969V112.969ZM243.013 109.909C241.22 107.877 240.263 105.015 240.263 101.195H238.263C238.263 105.344 239.306 108.732 241.513 111.232L243.013 109.909ZM266.802 88.8906V89.8906H267.802V88.8906H266.802ZM267.294 86.1484L266.426 85.653L266.425 85.6548L267.294 86.1484ZM269.099 82.9844L268.233 82.4833L268.23 82.4889L269.099 82.9844ZM273.365 88.8906H272.365V89.8906H273.365V88.8906ZM273.365 93.5781V92.5781H272.365V93.5781H273.365ZM273.693 108.648L272.738 108.946L272.742 108.958L272.746 108.971L273.693 108.648ZM277.115 109.445L277.363 110.414L277.375 110.411L277.386 110.408L277.115 109.445ZM278.544 108.953L278.958 109.863L278.96 109.863L278.544 108.953ZM279.622 109.492L280.589 109.238L280.587 109.229L280.585 109.221L279.622 109.492ZM280.326 112.164L279.358 112.419L279.359 112.42L280.326 112.164ZM279.716 113.336L280.13 114.246L280.132 114.245L279.716 113.336ZM277.583 113.969L277.381 112.989L277.371 112.992L277.361 112.994L277.583 113.969ZM266.802 93.5781H267.802V92.5781H266.802V93.5781ZM265.208 92.5781C264.865 92.5781 264.794 92.5019 264.818 92.5223C264.824 92.5272 264.83 92.5343 264.836 92.5425C264.842 92.5506 264.843 92.5551 264.843 92.5529C264.84 92.5474 264.826 92.5054 264.826 92.4062H262.826C262.826 92.9984 263.008 93.6102 263.525 94.0481C264.01 94.4591 264.63 94.5781 265.208 94.5781V92.5781ZM264.826 92.4062V90.0625H262.826V92.4062H264.826ZM264.826 90.0625C264.826 89.9633 264.84 89.9214 264.843 89.9158C264.843 89.9136 264.842 89.9182 264.836 89.9262C264.83 89.9344 264.824 89.9415 264.818 89.9465C264.794 89.9669 264.865 89.8906 265.208 89.8906V87.8906C264.63 87.8906 264.01 88.0097 263.525 88.4207C263.008 88.8586 262.826 89.4704 262.826 90.0625H264.826ZM265.208 89.8906H266.802V87.8906H265.208V89.8906ZM267.802 88.8906V88.0703H265.802V88.8906H267.802ZM267.802 88.0703C267.802 87.5299 267.926 87.0609 268.164 86.642L266.425 85.6548C266.006 86.3922 265.802 87.2045 265.802 88.0703H267.802ZM268.163 86.6439L269.968 83.4798L268.23 82.4889L266.426 85.653L268.163 86.6439ZM269.964 83.4854C270.09 83.2676 270.193 83.1663 270.251 83.1238C270.297 83.0908 270.311 83.0938 270.318 83.0938V81.0938C269.342 81.0938 268.665 81.7379 268.234 82.4833L269.964 83.4854ZM270.318 83.0938H271.958V81.0938H270.318V83.0938ZM271.958 83.0938C272.273 83.0938 272.325 83.1717 272.306 83.1524C272.287 83.1331 272.365 83.1854 272.365 83.5H274.365C274.365 82.8771 274.208 82.2263 273.72 81.7382C273.232 81.2502 272.581 81.0938 271.958 81.0938V83.0938ZM272.365 83.5V88.8906H274.365V83.5H272.365ZM273.365 89.8906H277.161V87.8906H273.365V89.8906ZM277.161 89.8906C277.505 89.8906 277.576 89.9669 277.552 89.9465C277.546 89.9415 277.539 89.9344 277.534 89.9262C277.528 89.9182 277.526 89.9136 277.527 89.9158C277.529 89.9214 277.544 89.9633 277.544 90.0625H279.544C279.544 89.4704 279.362 88.8586 278.845 88.4207C278.36 88.0097 277.74 87.8906 277.161 87.8906V89.8906ZM277.544 90.0625V92.4062H279.544V90.0625H277.544ZM277.544 92.4062C277.544 92.5054 277.529 92.5474 277.527 92.5529C277.526 92.5551 277.528 92.5506 277.534 92.5425C277.539 92.5343 277.546 92.5272 277.552 92.5223C277.576 92.5019 277.505 92.5781 277.161 92.5781V94.5781C277.74 94.5781 278.36 94.4591 278.845 94.0481C279.362 93.6102 279.544 92.9984 279.544 92.4062H277.544ZM277.161 92.5781H273.365V94.5781H277.161V92.5781ZM272.365 93.5781V105.203H274.365V93.5781H272.365ZM272.365 105.203C272.365 106.808 272.471 108.088 272.738 108.946L274.648 108.351C274.477 107.803 274.365 106.785 274.365 105.203H272.365ZM272.746 108.971C272.936 109.529 273.294 109.987 273.813 110.287C274.31 110.575 274.887 110.68 275.474 110.68V108.68C275.108 108.68 274.911 108.612 274.815 108.556C274.74 108.513 274.683 108.455 274.639 108.326L272.746 108.971ZM275.474 110.68C276.063 110.68 276.695 110.585 277.363 110.414L276.866 108.477C276.315 108.618 275.854 108.68 275.474 108.68V110.68ZM277.386 110.408C278.016 110.23 278.548 110.05 278.958 109.863L278.13 108.043C277.853 108.169 277.432 108.317 276.843 108.483L277.386 110.408ZM278.96 109.863C279.022 109.834 279.031 109.84 278.997 109.843C278.953 109.847 278.87 109.841 278.777 109.795C278.686 109.75 278.641 109.692 278.629 109.674C278.62 109.661 278.637 109.682 278.66 109.764L280.585 109.221C280.466 108.798 280.216 108.279 279.671 108.006C279.108 107.724 278.537 107.857 278.128 108.044L278.96 109.863ZM278.655 109.747L279.358 112.419L281.293 111.91L280.589 109.238L278.655 109.747ZM279.359 112.42C279.371 112.467 279.368 112.48 279.369 112.468C279.369 112.462 279.371 112.451 279.375 112.437C279.379 112.423 279.384 112.408 279.391 112.394C279.399 112.38 279.406 112.37 279.41 112.364C279.415 112.359 279.417 112.358 279.412 112.362C279.403 112.37 279.37 112.394 279.3 112.426L280.132 114.245C280.535 114.061 280.93 113.771 281.166 113.317C281.409 112.85 281.41 112.352 281.292 111.908L279.359 112.42ZM279.302 112.426C278.883 112.616 278.254 112.809 277.381 112.989L277.786 114.948C278.725 114.754 279.518 114.525 280.13 114.246L279.302 112.426ZM277.361 112.994C276.543 113.18 275.719 113.273 274.888 113.273V115.273C275.87 115.273 276.843 115.163 277.806 114.944L277.361 112.994ZM274.888 113.273C272.792 113.273 271.068 112.842 269.674 112.027L268.665 113.754C270.427 114.783 272.516 115.273 274.888 115.273V113.273ZM269.674 112.027C268.552 111.372 267.802 109.931 267.802 107.195H265.802C265.802 110.209 266.63 112.566 268.665 113.754L269.674 112.027ZM267.802 107.195V93.5781H265.802V107.195H267.802ZM266.802 92.5781H265.208V94.5781H266.802V92.5781ZM286.138 112.5C285.823 112.5 285.771 112.422 285.79 112.441C285.81 112.461 285.732 112.408 285.732 112.094H283.732C283.732 112.717 283.888 113.367 284.376 113.856C284.864 114.344 285.515 114.5 286.138 114.5V112.5ZM285.732 112.094V90.2969H283.732V112.094H285.732ZM285.732 90.2969C285.732 89.9823 285.81 89.93 285.79 89.9493C285.771 89.9686 285.823 89.8906 286.138 89.8906V87.8906C285.515 87.8906 284.864 88.047 284.376 88.5351C283.888 89.0231 283.732 89.674 283.732 90.2969H285.732ZM286.138 89.8906H289.888V87.8906H286.138V89.8906ZM289.888 89.8906C290.203 89.8906 290.255 89.9686 290.236 89.9493C290.216 89.93 290.294 89.9823 290.294 90.2969H292.294C292.294 89.674 292.138 89.0231 291.65 88.5351C291.162 88.047 290.511 87.8906 289.888 87.8906V89.8906ZM290.294 90.2969V112.094H292.294V90.2969H290.294ZM290.294 112.094C290.294 112.408 290.216 112.461 290.236 112.441C290.255 112.422 290.203 112.5 289.888 112.5V114.5C290.511 114.5 291.162 114.344 291.65 113.856C292.138 113.367 292.294 112.717 292.294 112.094H290.294ZM289.888 112.5H286.138V114.5H289.888V112.5ZM286.138 84.2812C285.823 84.2812 285.771 84.2033 285.79 84.2226C285.81 84.2419 285.732 84.1896 285.732 83.875H283.732C283.732 84.4979 283.888 85.1487 284.376 85.6368C284.864 86.1248 285.515 86.2812 286.138 86.2812V84.2812ZM285.732 83.875V80.875H283.732V83.875H285.732ZM285.732 80.875C285.732 80.5604 285.81 80.5081 285.79 80.5274C285.771 80.5467 285.823 80.4688 286.138 80.4688V78.4688C285.515 78.4688 284.864 78.6252 284.376 79.1132C283.888 79.6013 283.732 80.2521 283.732 80.875H285.732ZM286.138 80.4688H289.888V78.4688H286.138V80.4688ZM289.888 80.4688C290.203 80.4688 290.255 80.5467 290.236 80.5274C290.216 80.5081 290.294 80.5604 290.294 80.875H292.294C292.294 80.2521 292.138 79.6013 291.65 79.1132C291.162 78.6252 290.511 78.4688 289.888 78.4688V80.4688ZM290.294 80.875V83.875H292.294V80.875H290.294ZM290.294 83.875C290.294 84.1896 290.216 84.2419 290.236 84.2226C290.255 84.2033 290.203 84.2812 289.888 84.2812V86.2812C290.511 86.2812 291.162 86.1248 291.65 85.6368C292.138 85.1487 292.294 84.4979 292.294 83.875H290.294ZM289.888 84.2812H286.138V86.2812H289.888V84.2812ZM299.427 91.8203L298.688 91.1471L298.685 91.1499L299.427 91.8203ZM317.779 91.8203L317.037 92.4907L317.039 92.4935L317.779 91.8203ZM317.779 110.57L317.039 109.897L317.037 109.9L317.779 110.57ZM299.427 110.57L298.685 111.241L298.688 111.243L299.427 110.57ZM304.654 107.523L303.844 108.11L303.848 108.116L303.852 108.122L304.654 107.523ZM312.552 107.523L311.747 106.93L311.746 106.932L312.552 107.523ZM312.552 94.8906L311.742 95.4776L311.747 95.4833L311.751 95.489L312.552 94.8906ZM304.654 94.8906L303.849 94.2971L303.848 94.2988L304.654 94.8906ZM297.357 101.195C297.357 97.3812 298.334 94.5222 300.169 92.4907L298.685 91.1499C296.427 93.6497 295.357 97.0407 295.357 101.195H297.357ZM300.167 92.4935C301.983 90.498 304.737 89.4219 308.615 89.4219V87.4219C304.367 87.4219 300.996 88.6114 298.688 91.1471L300.167 92.4935ZM308.615 89.4219C312.492 89.4219 315.236 90.4982 317.037 92.4907L318.521 91.1499C316.227 88.6112 312.862 87.4219 308.615 87.4219V89.4219ZM317.039 92.4935C318.889 94.5251 319.872 97.3831 319.872 101.195H321.872C321.872 97.0388 320.794 93.6468 318.518 91.1471L317.039 92.4935ZM319.872 101.195C319.872 105.008 318.889 107.866 317.039 109.897L318.518 111.243C320.794 108.744 321.872 105.352 321.872 101.195H319.872ZM317.037 109.9C315.236 111.892 312.492 112.969 308.615 112.969V114.969C312.862 114.969 316.227 113.779 318.521 111.241L317.037 109.9ZM308.615 112.969C304.737 112.969 301.983 111.893 300.167 109.897L298.688 111.243C300.996 113.779 304.367 114.969 308.615 114.969V112.969ZM300.169 109.9C298.334 107.868 297.357 105.009 297.357 101.195H295.357C295.357 105.35 296.427 108.741 298.685 111.241L300.169 109.9ZM302.294 101.195C302.294 104.21 302.743 106.592 303.844 108.11L305.463 106.936C304.751 105.955 304.294 104.119 304.294 101.195H302.294ZM303.852 108.122C304.987 109.641 306.622 110.375 308.615 110.375V108.375C307.169 108.375 306.164 107.875 305.455 106.925L303.852 108.122ZM308.615 110.375C310.607 110.375 312.238 109.64 313.358 108.115L311.746 106.932C311.053 107.875 310.06 108.375 308.615 108.375V110.375ZM313.357 108.117C314.478 106.597 314.935 104.211 314.935 101.195H312.935C312.935 104.117 312.47 105.949 311.747 106.93L313.357 108.117ZM314.935 101.195C314.935 98.1811 314.478 95.7986 313.353 94.2922L311.751 95.489C312.47 96.4514 312.935 98.272 312.935 101.195H314.935ZM313.362 94.3037C312.244 92.762 310.612 92.0156 308.615 92.0156V94.0156C310.055 94.0156 311.048 94.5193 311.742 95.4776L313.362 94.3037ZM308.615 92.0156C306.617 92.0156 304.981 92.7615 303.849 94.2971L305.458 95.4842C306.17 94.5197 307.174 94.0156 308.615 94.0156V92.0156ZM303.848 94.2988C302.743 95.8038 302.294 98.183 302.294 101.195H304.294C304.294 98.2701 304.752 96.4462 305.46 95.4824L303.848 94.2988ZM332.451 91.6562H331.451V92.6562H332.451V91.6562ZM332.544 91.6562V92.6562H333.119L333.408 92.1594L332.544 91.6562ZM335.286 89.125L335.665 90.0508L335.676 90.0461L335.286 89.125ZM333.74 94.9375L334.576 95.485L334.579 95.4803L333.74 94.9375ZM327.341 112.5C327.027 112.5 326.974 112.422 326.994 112.441C327.013 112.461 326.935 112.408 326.935 112.094H324.935C324.935 112.717 325.091 113.367 325.579 113.856C326.067 114.344 326.718 114.5 327.341 114.5V112.5ZM326.935 112.094V90.2969H324.935V112.094H326.935ZM326.935 90.2969C326.935 89.9823 327.013 89.93 326.994 89.9493C326.974 89.9686 327.027 89.8906 327.341 89.8906V87.8906C326.718 87.8906 326.067 88.047 325.579 88.5351C325.091 89.0231 324.935 89.674 324.935 90.2969H326.935ZM327.341 89.8906H331.044V87.8906H327.341V89.8906ZM331.044 89.8906C331.359 89.8906 331.411 89.9686 331.392 89.9493C331.373 89.93 331.451 89.9823 331.451 90.2969H333.451C333.451 89.674 333.294 89.0231 332.806 88.5351C332.318 88.047 331.667 87.8906 331.044 87.8906V89.8906ZM331.451 90.2969V91.6562H333.451V90.2969H331.451ZM332.451 92.6562H332.544V90.6562H332.451V92.6562ZM333.408 92.1594C334.038 91.0778 334.796 90.4053 335.665 90.0508L334.908 88.1992C333.558 88.7509 332.488 89.7659 331.68 91.1531L333.408 92.1594ZM335.676 90.0461C336.631 89.6424 337.827 89.4219 339.294 89.4219V87.4219C337.636 87.4219 336.16 87.6701 334.897 88.2039L335.676 90.0461ZM339.294 89.4219C341.502 89.4219 343.261 90.1067 344.648 91.4399L346.034 89.9976C344.234 88.2683 341.961 87.4219 339.294 87.4219V89.4219ZM344.648 91.4399C345.935 92.6757 346.732 95.1115 346.732 99.1094H348.732C348.732 94.9822 347.935 91.8243 346.034 89.9976L344.648 91.4399ZM346.732 99.1094V112.094H348.732V99.1094H346.732ZM346.732 112.094C346.732 112.408 346.654 112.461 346.673 112.441C346.692 112.422 346.64 112.5 346.326 112.5V114.5C346.948 114.5 347.599 114.344 348.087 113.856C348.575 113.367 348.732 112.717 348.732 112.094H346.732ZM346.326 112.5H342.576V114.5H346.326V112.5ZM342.576 112.5C342.261 112.5 342.209 112.422 342.228 112.441C342.247 112.461 342.169 112.408 342.169 112.094H340.169C340.169 112.717 340.326 113.367 340.814 113.856C341.302 114.344 341.953 114.5 342.576 114.5V112.5ZM342.169 112.094V100.797H340.169V112.094H342.169ZM342.169 100.797C342.169 99.0756 342.11 97.647 341.988 96.5224C341.869 95.4336 341.68 94.5102 341.351 93.8858L339.581 94.8173C339.721 95.0835 339.884 95.6797 339.999 96.7393C340.111 97.7632 340.169 99.1119 340.169 100.797H342.169ZM341.351 93.8858C340.627 92.5104 339.143 92.0156 337.443 92.0156V94.0156C338.837 94.0156 339.368 94.4115 339.581 94.8173L341.351 93.8858ZM337.443 92.0156C335.493 92.0156 333.928 92.8036 332.9 94.3947L334.579 95.4803C335.207 94.5089 336.111 94.0156 337.443 94.0156V92.0156ZM332.903 94.39C332.373 95.2 332.035 96.3432 331.82 97.7123C331.602 99.1024 331.497 100.823 331.497 102.859H333.497C333.497 100.88 333.6 99.2726 333.796 98.0221C333.995 96.7505 334.278 95.9406 334.576 95.485L332.903 94.39ZM331.497 102.859V112.094H333.497V102.859H331.497ZM331.497 112.094C331.497 112.408 331.419 112.461 331.439 112.441C331.458 112.422 331.406 112.5 331.091 112.5V114.5C331.714 114.5 332.365 114.344 332.853 113.856C333.341 113.367 333.497 112.717 333.497 112.094H331.497ZM331.091 112.5H327.341V114.5H331.091V112.5ZM367.443 97.8906L367.467 98.8903L368.443 98.8664V97.8906H367.443ZM360.951 93.4141L361.292 94.3539L361.304 94.3495L360.951 93.4141ZM359.146 94.3047L359.694 95.1408L359.701 95.1367L359.146 94.3047ZM357.786 95.3125L357.14 94.549L357.13 94.5579L357.786 95.3125ZM356.005 95.4062L355.229 96.0375L355.237 96.0464L356.005 95.4062ZM354.06 93.0156L354.836 92.3845L354.835 92.3835L354.06 93.0156ZM354.411 91.1875L355.068 91.9421L355.074 91.9361L354.411 91.1875ZM356.31 89.9219L355.87 89.0236L355.863 89.0274L356.31 89.9219ZM359.216 88.9141L359.468 89.882L359.479 89.8788L359.216 88.9141ZM371.38 90.6719L370.726 91.4282L370.729 91.4311L371.38 90.6719ZM367.49 111.391H368.49V110.391H367.49V111.391ZM367.443 111.391V110.391H367.039L366.748 110.671L367.443 111.391ZM364.115 113.359L364.417 114.313L364.424 114.31L364.115 113.359ZM354.74 112.094L354.05 112.818L354.054 112.822L354.74 112.094ZM360.013 108.227L359.133 108.701L359.136 108.708L359.14 108.715L360.013 108.227ZM367.443 107.5L368.104 108.25L368.443 107.952V107.5H367.443ZM367.443 102.414H368.443V101.295L367.33 101.42L367.443 102.414ZM360.247 105.016L359.459 104.4L359.453 104.408L359.447 104.416L360.247 105.016ZM353.747 106.938C353.747 105.54 354.079 104.39 354.702 103.445C355.327 102.495 356.288 101.687 357.65 101.045L356.798 99.236C355.175 100.001 353.898 101.028 353.031 102.344C352.162 103.664 351.747 105.21 351.747 106.938H353.747ZM357.65 101.045C360.49 99.7071 363.756 98.9812 367.467 98.8903L367.418 96.8909C363.473 96.9875 359.927 97.7617 356.798 99.236L357.65 101.045ZM368.443 97.8906V96.9531H366.443V97.8906H368.443ZM368.443 96.9531C368.443 95.3803 368.052 94.0028 367.001 93.1353L365.728 94.6772C366.115 94.9972 366.443 95.651 366.443 96.9531H368.443ZM367.001 93.1353C366.047 92.3464 364.792 92.0156 363.365 92.0156V94.0156C364.5 94.0156 365.245 94.2786 365.728 94.6772L367.001 93.1353ZM363.365 92.0156C362.362 92.0156 361.434 92.1625 360.597 92.4786L361.304 94.3495C361.874 94.1344 362.555 94.0156 363.365 94.0156V92.0156ZM360.609 92.4743C359.859 92.7468 359.184 93.0775 358.591 93.4726L359.701 95.1367C360.139 94.8444 360.667 94.5813 361.292 94.3539L360.609 92.4743ZM358.597 93.4686C358.067 93.8163 357.581 94.1762 357.14 94.5491L358.432 96.0759C358.804 95.7613 359.224 95.4493 359.694 95.1407L358.597 93.4686ZM357.13 94.5579C356.996 94.6744 356.894 94.7403 356.824 94.7755C356.755 94.81 356.732 94.807 356.75 94.8061C356.774 94.8048 356.805 94.8113 356.827 94.8224C356.843 94.8303 356.822 94.8247 356.773 94.7661L355.237 96.0464C355.621 96.5073 356.17 96.8394 356.855 96.8033C357.473 96.7707 358.009 96.444 358.443 96.0671L357.13 94.5579ZM356.781 94.7751L354.836 92.3845L353.284 93.6468L355.23 96.0374L356.781 94.7751ZM354.835 92.3835C354.778 92.3143 354.767 92.2779 354.766 92.2755C354.766 92.2745 354.767 92.2786 354.767 92.2863C354.768 92.2941 354.767 92.3 354.766 92.3021C354.766 92.3072 354.792 92.1822 355.068 91.9421L353.755 90.4329C353.313 90.8178 352.921 91.3099 352.802 91.9244C352.675 92.5871 352.904 93.1803 353.285 93.6478L354.835 92.3835ZM355.074 91.9361C355.55 91.515 356.109 91.1405 356.757 90.8163L355.863 89.0274C355.074 89.422 354.367 89.8913 353.748 90.4389L355.074 91.9361ZM356.749 90.8201C357.401 90.5012 358.3 90.1853 359.468 89.8819L358.965 87.9462C357.726 88.2678 356.687 88.6238 355.87 89.0237L356.749 90.8201ZM359.479 89.8788C360.564 89.5831 362.028 89.4219 363.904 89.4219V87.4219C361.935 87.4219 360.275 87.5888 358.953 87.9493L359.479 89.8788ZM363.904 89.4219C367.013 89.4219 369.236 90.14 370.726 91.4282L372.034 89.9155C370.055 88.2038 367.295 87.4219 363.904 87.4219V89.4219ZM370.729 91.4311C372.201 92.6924 373.005 94.5905 373.005 97.3047H375.005C375.005 94.1751 374.059 91.6513 372.031 89.9126L370.729 91.4311ZM373.005 97.3047V112.094H375.005V97.3047H373.005ZM373.005 112.094C373.005 112.408 372.927 112.461 372.947 112.441C372.966 112.422 372.914 112.5 372.599 112.5V114.5C373.222 114.5 373.873 114.344 374.361 113.856C374.849 113.367 375.005 112.717 375.005 112.094H373.005ZM372.599 112.5H368.755V114.5H372.599V112.5ZM368.755 112.5C368.634 112.5 368.572 112.483 368.549 112.474C368.531 112.468 368.539 112.468 368.549 112.479C368.568 112.5 368.49 112.433 368.49 112.094H366.49C366.49 112.692 366.622 113.328 367.063 113.817C367.521 114.327 368.15 114.5 368.755 114.5V112.5ZM368.49 112.094V111.391H366.49V112.094H368.49ZM367.49 110.391H367.443V112.391H367.49V110.391ZM366.748 110.671C365.942 111.45 364.967 112.03 363.805 112.408L364.424 114.31C365.856 113.845 367.099 113.113 368.138 112.11L366.748 110.671ZM363.812 112.406C362.606 112.789 361.529 112.969 360.576 112.969V114.969C361.778 114.969 363.061 114.743 364.417 114.313L363.812 112.406ZM360.576 112.969C358.164 112.969 356.504 112.381 355.425 111.366L354.054 112.822C355.632 114.307 357.862 114.969 360.576 114.969V112.969ZM355.429 111.37C354.336 110.327 353.747 108.89 353.747 106.938H351.747C351.747 109.328 352.487 111.329 354.05 112.818L355.429 111.37ZM358.685 106.797C358.685 107.479 358.822 108.124 359.133 108.701L360.893 107.752C360.767 107.517 360.685 107.209 360.685 106.797H358.685ZM359.14 108.715C359.485 109.331 360.02 109.761 360.673 110.022L361.416 108.165C361.131 108.051 360.978 107.904 360.886 107.738L359.14 108.715ZM360.673 110.022C361.276 110.263 361.928 110.375 362.615 110.375V108.375C362.145 108.375 361.75 108.299 361.416 108.165L360.673 110.022ZM362.615 110.375C363.504 110.375 364.372 110.253 365.215 110.007L364.655 108.087C363.998 108.279 363.319 108.375 362.615 108.375V110.375ZM365.215 110.007C366.164 109.73 367.128 109.11 368.104 108.25L366.781 106.75C365.913 107.515 365.206 107.926 364.655 108.087L365.215 110.007ZM368.443 107.5V102.414H366.443V107.5H368.443ZM367.33 101.42C364.72 101.716 362.782 102.11 361.704 102.678L362.635 104.447C363.337 104.078 364.915 103.706 367.555 103.408L367.33 101.42ZM361.704 102.678C360.753 103.178 359.973 103.742 359.459 104.4L361.035 105.631C361.303 105.289 361.804 104.885 362.635 104.447L361.704 102.678ZM359.447 104.416C358.929 105.106 358.685 105.916 358.685 106.797H360.685C360.685 106.303 360.815 105.925 361.047 105.616L359.447 104.416ZM386.919 92.2188H385.919V93.2188H386.919V92.2188ZM387.013 92.2188V93.2188H387.686L387.939 92.5951L387.013 92.2188ZM394.63 88.75L394.276 89.6853L394.282 89.6874L394.63 88.75ZM395.263 89.875L396.236 90.104L396.238 90.0978L395.263 89.875ZM394.607 92.6641L393.633 92.435L393.631 92.4446L394.607 92.6641ZM393.341 93.2266L393.676 92.2843L393.668 92.2816L393.341 93.2266ZM381.81 112.5C381.495 112.5 381.443 112.422 381.462 112.441C381.482 112.461 381.404 112.408 381.404 112.094H379.404C379.404 112.717 379.56 113.367 380.048 113.856C380.536 114.344 381.187 114.5 381.81 114.5V112.5ZM381.404 112.094V90.2969H379.404V112.094H381.404ZM381.404 90.2969C381.404 89.9823 381.482 89.93 381.462 89.9493C381.443 89.9686 381.495 89.8906 381.81 89.8906V87.8906C381.187 87.8906 380.536 88.047 380.048 88.5351C379.56 89.0231 379.404 89.674 379.404 90.2969H381.404ZM381.81 89.8906H385.513V87.8906H381.81V89.8906ZM385.513 89.8906C385.828 89.8906 385.88 89.9686 385.861 89.9493C385.841 89.93 385.919 89.9823 385.919 90.2969H387.919C387.919 89.674 387.763 89.0231 387.275 88.5351C386.787 88.047 386.136 87.8906 385.513 87.8906V89.8906ZM385.919 90.2969V92.2188H387.919V90.2969H385.919ZM386.919 93.2188H387.013V91.2188H386.919V93.2188ZM387.939 92.5951C388.274 91.7729 388.84 91.0233 389.678 90.3499L388.426 88.7907C387.358 89.6486 386.565 90.6646 386.087 91.8424L387.939 92.5951ZM389.678 90.3499C390.443 89.736 391.343 89.4219 392.427 89.4219V87.4219C390.917 87.4219 389.568 87.8734 388.426 88.7907L389.678 90.3499ZM392.427 89.4219C393.246 89.4219 393.849 89.5237 394.276 89.6853L394.984 87.8147C394.255 87.5388 393.39 87.4219 392.427 87.4219V89.4219ZM394.282 89.6874C394.313 89.6991 394.335 89.7094 394.35 89.7172C394.365 89.7249 394.371 89.7296 394.371 89.7296C394.371 89.7296 394.369 89.7285 394.367 89.7261C394.364 89.7236 394.36 89.72 394.356 89.7151C394.347 89.705 394.337 89.6911 394.327 89.6739C394.317 89.6565 394.31 89.639 394.305 89.6229C394.3 89.607 394.299 89.5954 394.298 89.5899C394.297 89.5798 394.301 89.5977 394.288 89.6522L396.238 90.0978C396.338 89.6577 396.331 89.1566 396.07 88.6933C395.813 88.2363 395.395 87.9671 394.978 87.8126L394.282 89.6874ZM394.29 89.646L393.633 92.435L395.58 92.8931L396.236 90.104L394.29 89.646ZM393.631 92.4446C393.616 92.5109 393.605 92.5119 393.626 92.4816C393.638 92.4652 393.657 92.4424 393.685 92.4186C393.713 92.3945 393.745 92.3744 393.779 92.3596C393.847 92.3294 393.888 92.3345 393.871 92.3336C393.851 92.3325 393.789 92.3246 393.676 92.2843L393.006 94.1688C393.458 94.3293 394.037 94.4333 394.591 94.1872C395.193 93.9198 395.471 93.3766 395.582 92.8836L393.631 92.4446ZM393.668 92.2816C393.172 92.1098 392.671 92.0156 392.169 92.0156V94.0156C392.418 94.0156 392.698 94.0621 393.014 94.1715L393.668 92.2816ZM392.169 92.0156C390.173 92.0156 388.652 93.2468 387.566 95.2305L389.32 96.1914C390.202 94.5813 391.165 94.0156 392.169 94.0156V92.0156ZM387.566 95.2305C386.463 97.2428 385.966 100.057 385.966 103.562H387.966C387.966 100.193 388.453 97.7728 389.32 96.1914L387.566 95.2305ZM385.966 103.562V112.094H387.966V103.562H385.966ZM385.966 112.094C385.966 112.408 385.888 112.461 385.907 112.441C385.927 112.422 385.874 112.5 385.56 112.5V114.5C386.183 114.5 386.834 114.344 387.322 113.856C387.81 113.367 387.966 112.717 387.966 112.094H385.966ZM385.56 112.5H381.81V114.5H385.56V112.5ZM397.302 90.7188L398.248 90.3938L398.247 90.3916L397.302 90.7188ZM403.677 90.0859L404.642 89.8252L404.641 89.8212L403.677 90.0859ZM407.216 103.188L406.251 103.448L406.254 103.459L407.216 103.188ZM407.661 105.555L406.67 105.683L406.671 105.692L406.672 105.701L407.661 105.555ZM407.872 107.383H406.872V108.383H407.872V107.383ZM408.013 107.383V108.383H408.812L408.988 107.604L408.013 107.383ZM408.411 105.414L407.429 105.23L407.426 105.242L407.424 105.255L408.411 105.414ZM409.138 102.531L410.102 102.796L410.104 102.791L409.138 102.531ZM412.49 90.0859L411.525 89.8212L411.524 89.8259L412.49 90.0859ZM418.865 90.7188L417.916 90.4025L417.916 90.4034L418.865 90.7188ZM410.966 114.484L410.017 114.169L410.017 114.17L410.966 114.484ZM398.451 123.016L398.658 122.037L398.657 122.037L398.451 123.016ZM397.771 121.797L398.751 121.997L398.751 121.993L397.771 121.797ZM398.286 119.219L397.308 119.014L397.306 119.023L398.286 119.219ZM399.482 118.516L399.789 117.564L399.777 117.56L399.482 118.516ZM403.724 116.945L402.851 116.458L402.846 116.466L403.724 116.945ZM405.06 113.852L406.029 114.098L406.035 114.073L406.04 114.048L405.06 113.852ZM405.13 113.5L406.111 113.696L406.164 113.431L406.076 113.175L405.13 113.5ZM398.247 90.3916C398.158 90.1354 398.12 89.9518 398.109 89.8296C398.098 89.7046 398.119 89.6915 398.1 89.7373C398.089 89.7632 398.069 89.7974 398.038 89.831C398.006 89.8645 397.975 89.885 397.954 89.8958C397.918 89.9141 397.94 89.8906 398.076 89.8906V87.8906C397.402 87.8906 396.608 88.1304 396.258 88.958C395.975 89.626 396.132 90.395 396.357 91.0459L398.247 90.3916ZM398.076 89.8906H402.271V87.8906H398.076V89.8906ZM402.271 89.8906C402.435 89.8906 402.49 89.9311 402.514 89.9514C402.551 89.9827 402.639 90.0808 402.713 90.3507L404.641 89.8212C404.497 89.2942 404.241 88.7947 403.809 88.4275C403.364 88.0494 402.825 87.8906 402.271 87.8906V89.8906ZM402.712 90.3467L406.251 103.448L408.182 102.927L404.642 89.8252L402.712 90.3467ZM406.254 103.459C406.407 104.003 406.548 104.739 406.67 105.683L408.653 105.427C408.525 104.432 408.369 103.59 408.179 102.916L406.254 103.459ZM406.672 105.701C406.816 106.676 406.872 107.206 406.872 107.383H408.872C408.872 107.028 408.788 106.34 408.651 105.409L406.672 105.701ZM407.872 108.383H408.013V106.383H407.872V108.383ZM408.988 107.604C409.178 106.767 409.316 106.088 409.399 105.573L407.424 105.255C407.351 105.709 407.223 106.342 407.038 107.162L408.988 107.604ZM409.394 105.598C409.479 105.145 409.71 104.224 410.102 102.796L408.174 102.266C407.785 103.683 407.531 104.683 407.429 105.23L409.394 105.598ZM410.104 102.791L413.455 90.346L411.524 89.8259L408.172 102.271L410.104 102.791ZM413.454 90.3507C413.528 90.0808 413.616 89.9827 413.653 89.9514C413.677 89.9311 413.732 89.8906 413.896 89.8906V87.8906C413.341 87.8906 412.802 88.0494 412.358 88.4275C411.926 88.7947 411.67 89.2942 411.525 89.8212L413.454 90.3507ZM413.896 89.8906H418.091V87.8906H413.896V89.8906ZM418.091 89.8906C418.221 89.8906 418.238 89.9133 418.199 89.8933C418.177 89.8818 418.146 89.8608 418.115 89.8277C418.084 89.7945 418.065 89.7614 418.055 89.7373C418.037 89.6951 418.058 89.7115 418.048 89.838C418.038 89.9617 418.001 90.1462 417.916 90.4025L419.813 91.035C420.031 90.3829 420.177 89.6191 419.897 88.958C419.549 88.1369 418.766 87.8906 418.091 87.8906V89.8906ZM417.916 90.4034L410.017 114.169L411.915 114.8L419.814 91.0341L417.916 90.4034ZM410.017 114.17C409.12 116.875 408.04 118.917 406.81 120.348L408.326 121.652C409.783 119.958 410.968 117.656 411.915 114.799L410.017 114.17ZM406.81 120.348C405.687 121.653 404.117 122.344 401.966 122.344V124.344C404.596 124.344 406.761 123.472 408.326 121.652L406.81 120.348ZM401.966 122.344C400.707 122.344 399.607 122.239 398.658 122.037L398.243 123.994C399.357 124.23 400.6 124.344 401.966 124.344V122.344ZM398.657 122.037C398.6 122.025 398.596 122.016 398.618 122.03C398.629 122.037 398.646 122.05 398.663 122.068C398.681 122.087 398.697 122.108 398.709 122.13C398.734 122.175 398.733 122.2 398.731 122.181C398.729 122.16 398.729 122.102 398.751 121.997L396.791 121.596C396.696 122.06 396.685 122.608 396.962 123.104C397.256 123.632 397.756 123.891 398.244 123.994L398.657 122.037ZM398.751 121.993L399.267 119.415L397.306 119.023L396.79 121.601L398.751 121.993ZM399.265 119.424C399.284 119.333 399.303 119.303 399.3 119.308C399.297 119.312 399.289 119.326 399.271 119.344C399.252 119.363 399.228 119.383 399.198 119.401C399.168 119.419 399.138 119.43 399.113 119.437C399.088 119.444 399.072 119.445 399.068 119.445C399.062 119.445 399.097 119.443 399.186 119.471L399.777 117.56C399.312 117.416 398.723 117.36 398.184 117.677C397.644 117.994 397.407 118.537 397.308 119.014L399.265 119.424ZM399.175 119.467C399.739 119.649 400.296 119.75 400.841 119.75V117.75C400.542 117.75 400.194 117.695 399.789 117.564L399.175 119.467ZM400.841 119.75C401.639 119.75 402.384 119.558 403.042 119.146C403.695 118.737 404.209 118.145 404.602 117.424L402.846 116.466C402.583 116.949 402.288 117.259 401.98 117.451C401.677 117.641 401.309 117.75 400.841 117.75V119.75ZM404.597 117.433C405.291 116.191 405.78 115.075 406.029 114.098L404.091 113.605C403.902 114.347 403.501 115.294 402.851 116.458L404.597 117.433ZM406.04 114.048L406.111 113.696L404.15 113.304L404.079 113.655L406.04 114.048ZM406.076 113.175L398.248 90.3938L396.356 91.0437L404.184 113.825L406.076 113.175Z" fill="black" mask="url(#path-2-outside-1_267_14)"/>
</g>
<g filter="url(#filter1_d_267_14)">
<path d="M172.033 75.858L167.768 75.8174C167.714 75.8174 160.991 75.4162 158.286 74.9427C152.451 73.9237 147.78 74.0138 142.847 77.5399C137.793 74.0545 134.375 73.8381 127.801 74.9562C127.246 75.0508 126.714 75.1501 126.187 75.2494C124.212 75.628 118.517 75.8581 118.517 75.8581H114.265C113.309 75.8581 112.534 76.6336 112.534 77.5896V121.754C112.534 122.71 113.309 123.486 114.265 123.486H135.849C135.8 123.639 135.75 123.792 135.75 123.964C135.75 124.892 136.535 125.646 137.513 125.646H148.285C149.263 125.646 150.052 124.892 150.052 123.964C150.052 123.792 150.003 123.639 149.949 123.486H172.033C172.994 123.486 173.769 122.71 173.769 121.754V77.5895C173.769 76.6335 172.994 75.858 172.033 75.858Z" fill="#27323A"/>
<path d="M116.001 79.3253H118.265V120.023H116.001V79.3253Z" fill="white"/>
<path d="M120.65 79.3388C123.152 79.3253 125.042 78.9916 126.832 78.6534C127.347 78.552 127.864 78.4572 128.383 78.3692C134.876 77.2692 137.211 77.711 141.54 80.8583C141.567 80.8763 141.594 80.8853 141.621 80.8989V117.601C136.012 112.682 130.971 114.634 124.645 117.123L120.65 118.792C120.641 111.988 120.641 87.0083 120.65 79.3388Z" fill="#79CCBF"/>
<path d="M125.511 119.243C132.035 116.677 135.971 115.135 140.877 120.018C140.877 120.018 140.881 120.023 140.886 120.023H123.639L125.511 119.243ZM144.836 120.023C144.858 120.005 144.89 119.991 144.912 119.969C149.439 115.036 153.718 116.65 160.784 119.31L162.524 120.023H144.836Z" fill="#F4CE73"/>
<path d="M165.482 118.769L161.622 117.182C154.755 114.594 149.277 112.547 143.93 117.719V80.989C144.033 80.9394 144.141 80.899 144.236 80.8268C148.479 77.5082 152.239 77.3999 157.691 78.3559C159.832 78.7301 163.602 79.0546 165.482 79.1989C165.5 86.8147 165.5 112.051 165.482 118.769Z" fill="#79CCBF"/>
<path d="M167.786 79.3253H170.302V120.023H167.786V79.3253Z" fill="white"/>
</g>
<g filter="url(#filter2_d_267_14)">
<path d="M16.056 0H41.056V87.3547C41.056 88.5566 40.3386 89.6426 39.233 90.1141L20.233 98.2184C18.254 99.0625 16.056 97.6104 16.056 95.4589V0Z" fill="#79CCBF"/>
</g>
<defs>
<filter id="filter0_d_267_14" x="190.216" y="79.4688" width="233.258" height="51.875" filterUnits="userSpaceOnUse" color-interpolation-filters="sRGB">
<feFlood flood-opacity="0" result="BackgroundImageFix"/>
<feColorMatrix in="SourceAlpha" type="matrix" values="0 0 0 0 0 0 0 0 0 0 0 0 0 0 0 0 0 0 127 0" result="hardAlpha"/>
<feOffset dy="4"/>
<feGaussianBlur stdDeviation="2"/>
<feComposite in2="hardAlpha" operator="out"/>
<feColorMatrix type="matrix" values="0 0 0 0 0 0 0 0 0 0 0 0 0 0 0 0 0 0 0.25 0"/>
<feBlend mode="normal" in2="BackgroundImageFix" result="effect1_dropShadow_267_14"/>
<feBlend mode="normal" in="SourceGraphic" in2="effect1_dropShadow_267_14" result="shape"/>
</filter>
<filter id="filter1_d_267_14" x="108.534" y="74.3545" width="69.2356" height="59.291" filterUnits="userSpaceOnUse" color-interpolation-filters="sRGB">
<feFlood flood-opacity="0" result="BackgroundImageFix"/>
<feColorMatrix in="SourceAlpha" type="matrix" values="0 0 0 0 0 0 0 0 0 0 0 0 0 0 0 0 0 0 127 0" result="hardAlpha"/>
<feOffset dy="4"/>
<feGaussianBlur stdDeviation="2"/>
<feComposite in2="hardAlpha" operator="out"/>
<feColorMatrix type="matrix" values="0 0 0 0 0 0 0 0 0 0 0 0 0 0 0 0 0 0 0.25 0"/>
<feBlend mode="normal" in2="BackgroundImageFix" result="effect1_dropShadow_267_14"/>
<feBlend mode="normal" in="SourceGraphic" in2="effect1_dropShadow_267_14" result="shape"/>
</filter>
<filter id="filter2_d_267_14" x="12.056" y="0" width="33" height="106.462" filterUnits="userSpaceOnUse" color-interpolation-filters="sRGB">
<feFlood flood-opacity="0" result="BackgroundImageFix"/>
<feColorMatrix in="SourceAlpha" type="matrix" values="0 0 0 0 0 0 0 0 0 0 0 0 0 0 0 0 0 0 127 0" result="hardAlpha"/>
<feOffset dy="4"/>
<feGaussianBlur stdDeviation="2"/>
<feComposite in2="hardAlpha" operator="out"/>
<feColorMatrix type="matrix" values="0 0 0 0 0 0 0 0 0 0 0 0 0 0 0 0 0 0 0.25 0"/>
<feBlend mode="normal" in2="BackgroundImageFix" result="effect1_dropShadow_267_14"/>
<feBlend mode="normal" in="SourceGraphic" in2="effect1_dropShadow_267_14" result="shape"/>
</filter>
<linearGradient id="paint0_linear_267_14" x1="266" y1="0" x2="266" y2="200" gradientUnits="userSpaceOnUse">
<stop stop-color="#DDDDDD"/>
<stop offset="0.5" stop-color="white"/>
<stop offset="1" stop-color="#DDDDDD"/>
</linearGradient>
</defs>
</svg>
