<svg width="532" height="200" viewBox="0 0 532 200" fill="none" xmlns="http://www.w3.org/2000/svg">
<rect x="0.236206" width="531.528" height="200" fill="url(#paint0_linear_220_79)"/>
<mask id="path-2-inside-1_220_79" fill="white">
<path d="M116.999 164C116.999 161.791 118.79 160 120.999 160H216.999V200H116.999V164Z"/>
</mask>
<path d="M116.999 164C116.999 161.791 118.79 160 120.999 160H216.999V200H116.999V164Z" fill="#AAAAAA"/>
<path d="M115.999 164C115.999 161.239 118.238 159 120.999 159H217.999L215.999 161H120.999C119.342 161 117.999 162.343 117.999 164H115.999ZM216.999 200H116.999H216.999ZM115.999 200V164C115.999 161.239 118.238 159 120.999 159V161C119.342 161 117.999 162.343 117.999 164V200H115.999ZM217.999 159V200H215.999V161L217.999 159Z" fill="black" mask="url(#path-2-inside-1_220_79)"/>
<mask id="path-4-inside-2_220_79" fill="white">
<path d="M314.999 140H410.999C413.208 140 414.999 141.791 414.999 144V200H314.999V140Z"/>
</mask>
<path d="M314.999 140H410.999C413.208 140 414.999 141.791 414.999 144V200H314.999V140Z" fill="#AAAAAA"/>
<path d="M313.999 139H410.999C413.761 139 415.999 141.239 415.999 144H413.999C413.999 142.343 412.656 141 410.999 141H315.999L313.999 139ZM414.999 200H314.999H414.999ZM313.999 200V139L315.999 141V200H313.999ZM410.999 139C413.761 139 415.999 141.239 415.999 144V200H413.999V144C413.999 142.343 412.656 141 410.999 141V139Z" fill="black" mask="url(#path-4-inside-2_220_79)"/>
<mask id="path-6-inside-3_220_79" fill="white">
<path d="M216 104C216 101.791 217.791 100 220 100H312C314.209 100 316 101.791 316 104V200H216V104Z"/>
</mask>
<path d="M216 104C216 101.791 217.791 100 220 100H312C314.209 100 316 101.791 316 104V200H216V104Z" fill="#D9D9D9"/>
<path d="M215 104C215 101.239 217.239 99 220 99H312C314.761 99 317 101.239 317 104H315C315 102.343 313.657 101 312 101H220C218.343 101 217 102.343 217 104H215ZM316 200H216H316ZM215 200V104C215 101.239 217.239 99 220 99V101C218.343 101 217 102.343 217 104V200H215ZM312 99C314.761 99 317 101.239 317 104V200H315V104C315 102.343 313.657 101 312 101V99Z" fill="black" mask="url(#path-6-inside-3_220_79)"/>
<path d="M272.197 165.791H269.932V164.936C269.932 164.594 269.675 164.338 269.333 164.338H268.137L267.709 161.218H268.65C268.991 161.218 269.248 160.962 269.248 160.62C269.248 160.278 268.991 160.021 268.65 160.021H267.538L267.41 159.167H264.462L264.333 160.021H263.222C262.88 160.021 262.624 160.278 262.624 160.62C262.624 160.962 262.88 161.218 263.222 161.218H264.162L263.735 164.338H262.538C262.197 164.338 261.94 164.594 261.94 164.936V165.791H259.675C258.821 165.791 258.137 166.474 258.137 167.329V169.252H273.692V167.329C273.735 166.474 273.051 165.791 272.197 165.791Z" fill="#FFC54D"/>
<path d="M272.709 135.235V137.799H283.393V144.167C282.795 145.278 279.761 150.15 271 149.081L270.701 151.645C271.684 151.774 272.624 151.816 273.521 151.816C282.923 151.816 285.786 145.278 285.914 144.979L286 144.722V135.235H272.709Z" fill="#FFC54D"/>
<path d="M261.256 151.603L260.957 149.038C252.197 150.15 249.12 145.235 248.564 144.124V137.799H259.248V135.235H246V144.722L246.085 144.979C246.214 145.278 249.077 151.816 258.479 151.816C259.333 151.774 260.274 151.731 261.256 151.603Z" fill="#FFC54D"/>
<path d="M275.103 135.235V162.158L278.137 159.594L281.171 162.158V135.235H275.103Z" fill="#D84254"/>
<path d="M250.786 162.158L253.821 159.594L256.855 162.158V135.235H250.786V162.158Z" fill="#D84254"/>
<path d="M266 160.534C258.991 160.534 253.308 154.85 253.308 147.842V130.748H278.65V147.842C278.65 154.85 272.966 160.534 266 160.534Z" fill="#FFC54D"/>
<path d="M266.256 137.97L267.88 141.218C267.923 141.303 268.009 141.389 268.137 141.389L271.726 141.902C271.983 141.944 272.068 142.244 271.897 142.457L269.291 144.979C269.205 145.064 269.162 145.15 269.205 145.278L269.803 148.868C269.846 149.124 269.59 149.338 269.333 149.209L266.128 147.5C266.043 147.457 265.915 147.457 265.829 147.5L262.624 149.209C262.41 149.338 262.111 149.124 262.154 148.868L262.752 145.278C262.752 145.192 262.752 145.064 262.667 144.979L260.06 142.457C259.889 142.286 259.974 141.944 260.231 141.902L263.821 141.389C263.906 141.389 263.991 141.303 264.077 141.218L265.701 137.97C265.829 137.714 266.128 137.714 266.256 137.97Z" fill="#EDB248"/>
<mask id="path-15-outside-4_220_79" maskUnits="userSpaceOnUse" x="123.5" y="43" width="285" height="38" fill="black">
<rect fill="white" x="123.5" y="43" width="285" height="38"/>
<path d="M126.891 79C125.797 79 125.25 78.4141 125.25 77.2422V47.1484C125.25 45.9766 125.797 45.3906 126.891 45.3906H130.688C131.625 45.3906 132.094 45.9766 132.094 47.1484V73.1875H145.758C146.93 73.1875 147.516 73.6953 147.516 74.7109V77.4766C147.516 78.4922 146.93 79 145.758 79H126.891ZM150.609 66.6953C150.609 62.7422 151.594 59.625 153.562 57.3438C155.547 55.0625 158.344 53.9219 161.953 53.9219C166.141 53.9219 169.25 55 171.281 57.1562C173.312 59.3125 174.328 62.7812 174.328 67.5625C174.328 68.5 173.891 68.9688 173.016 68.9688H157.547C157.797 71.5625 158.438 73.1953 159.469 73.8672C160.5 74.5391 161.695 74.875 163.055 74.875C164.352 74.875 165.344 74.7031 166.031 74.3594C166.719 74.0156 167.297 73.5469 167.766 72.9531C168.297 72.2656 168.953 72.1562 169.734 72.625L172.078 74.0547C173 74.6172 173.133 75.2891 172.477 76.0703C171.523 77.2109 170.406 78.0625 169.125 78.625C167.844 79.1875 165.82 79.4688 163.055 79.4688C158.57 79.4688 155.375 78.3281 153.469 76.0469C151.562 73.7656 150.609 70.6484 150.609 66.6953ZM157.57 64.2812H167.766C167.766 62.5938 167.344 61.2188 166.5 60.1562C165.656 59.0781 164.312 58.5391 162.469 58.5391C161 58.5391 159.836 59.0547 158.977 60.0859C158.117 61.1016 157.648 62.5 157.57 64.2812ZM178.125 72.4375C178.125 69.3125 179.617 67.0469 182.602 65.6406C185.586 64.2344 188.992 63.4844 192.82 63.3906V62.4531C192.82 61.0156 192.461 60 191.742 59.4062C191.023 58.8125 190.023 58.5156 188.742 58.5156C187.836 58.5156 187.031 58.6484 186.328 58.9141C185.641 59.1641 185.039 59.4609 184.523 59.8047C184.023 60.1328 183.57 60.4688 183.164 60.8125C182.445 61.4375 181.852 61.4688 181.383 60.9062L179.438 58.5156C178.953 57.9219 179.07 57.3125 179.789 56.6875C180.336 56.2031 180.969 55.7812 181.688 55.4219C182.422 55.0625 183.391 54.7266 184.594 54.4141C185.797 54.0859 187.359 53.9219 189.281 53.9219C192.531 53.9219 195.023 54.6719 196.758 56.1719C198.508 57.6719 199.383 59.8828 199.383 62.8047V77.5938C199.383 78.5312 198.914 79 197.977 79H194.133C193.289 79 192.867 78.5312 192.867 77.5938V76.8906H192.82C191.898 77.7812 190.789 78.4375 189.492 78.8594C188.211 79.2656 187.031 79.4688 185.953 79.4688C183.391 79.4688 181.445 78.8438 180.117 77.5938C178.789 76.3281 178.125 74.6094 178.125 72.4375ZM185.062 72.2969C185.062 72.8438 185.172 73.3203 185.391 73.7266C185.609 74.1172 185.953 74.4062 186.422 74.5938C186.891 74.7812 187.414 74.875 187.992 74.875C188.789 74.875 189.562 74.7656 190.312 74.5469C191.062 74.3281 191.898 73.8125 192.82 73V67.9141C190.195 68.2109 188.438 68.5938 187.547 69.0625C186.656 69.5312 186.016 70.0156 185.625 70.5156C185.25 71.0156 185.062 71.6094 185.062 72.2969ZM204.469 66.6953C204.469 63.2578 205.211 60.2734 206.695 57.7422C208.195 55.1953 210.781 53.9219 214.453 53.9219C215.859 53.9219 217.062 54.125 218.062 54.5312C219.062 54.9375 219.969 55.8125 220.781 57.1562H220.875C220.812 56.5312 220.781 55.9062 220.781 55.2812V45.8125C220.781 44.875 221.25 44.4062 222.188 44.4062H225.938C226.875 44.4062 227.344 44.875 227.344 45.8125V77.5938C227.344 78.5312 226.875 79 225.938 79H222.234C221.453 79 221.031 78.5312 220.969 77.5938L220.875 76.2344H220.781C219.969 77.5781 219.062 78.4531 218.062 78.8594C217.062 79.2656 215.859 79.4688 214.453 79.4688C210.781 79.4688 208.195 78.2031 206.695 75.6719C205.211 73.125 204.469 70.1328 204.469 66.6953ZM211.406 66.6953C211.406 69.1953 211.727 71.1875 212.367 72.6719C213.023 74.1406 214.406 74.875 216.516 74.875C217.688 74.875 218.688 74.2188 219.516 72.9062C220.359 71.5781 220.781 69.8594 220.781 67.75V65.6406C220.781 63.5312 220.359 61.8203 219.516 60.5078C218.688 59.1797 217.688 58.5156 216.516 58.5156C214.406 58.5156 213.023 59.2578 212.367 60.7422C211.727 62.2109 211.406 64.1953 211.406 66.6953ZM232.406 66.6953C232.406 62.7422 233.391 59.625 235.359 57.3438C237.344 55.0625 240.141 53.9219 243.75 53.9219C247.938 53.9219 251.047 55 253.078 57.1562C255.109 59.3125 256.125 62.7812 256.125 67.5625C256.125 68.5 255.688 68.9688 254.812 68.9688H239.344C239.594 71.5625 240.234 73.1953 241.266 73.8672C242.297 74.5391 243.492 74.875 244.852 74.875C246.148 74.875 247.141 74.7031 247.828 74.3594C248.516 74.0156 249.094 73.5469 249.562 72.9531C250.094 72.2656 250.75 72.1562 251.531 72.625L253.875 74.0547C254.797 74.6172 254.93 75.2891 254.273 76.0703C253.32 77.2109 252.203 78.0625 250.922 78.625C249.641 79.1875 247.617 79.4688 244.852 79.4688C240.367 79.4688 237.172 78.3281 235.266 76.0469C233.359 73.7656 232.406 70.6484 232.406 66.6953ZM239.367 64.2812H249.562C249.562 62.5938 249.141 61.2188 248.297 60.1562C247.453 59.0781 246.109 58.5391 244.266 58.5391C242.797 58.5391 241.633 59.0547 240.773 60.0859C239.914 61.1016 239.445 62.5 239.367 64.2812ZM262.641 79C261.703 79 261.234 78.5312 261.234 77.5938V55.7969C261.234 54.8594 261.703 54.3906 262.641 54.3906H266.344C267.281 54.3906 267.75 54.8594 267.75 55.7969V57.7188H267.844C268.25 56.7188 268.93 55.8359 269.883 55.0703C270.836 54.3047 271.961 53.9219 273.258 53.9219C274.148 53.9219 274.883 54.0312 275.461 54.25C276.008 54.4531 276.219 54.8281 276.094 55.375L275.438 58.1641C275.297 58.7891 274.875 58.9766 274.172 58.7266C273.766 58.5859 273.375 58.5156 273 58.5156C271.5 58.5156 270.258 59.4141 269.273 61.2109C268.289 63.0078 267.797 65.625 267.797 69.0625V77.5938C267.797 78.5312 267.328 79 266.391 79H262.641ZM281.062 79C280.125 79 279.656 78.5312 279.656 77.5938V45.8125C279.656 44.875 280.125 44.4062 281.062 44.4062H284.812C285.75 44.4062 286.219 44.875 286.219 45.8125V55.2812C286.219 55.9062 286.188 56.5312 286.125 57.1562H286.219C287.031 55.8125 287.938 54.9375 288.938 54.5312C289.938 54.125 291.141 53.9219 292.547 53.9219C296.219 53.9219 298.797 55.1953 300.281 57.7422C301.781 60.2734 302.531 63.2578 302.531 66.6953C302.531 70.1328 301.781 73.125 300.281 75.6719C298.797 78.2031 296.219 79.4688 292.547 79.4688C291.141 79.4688 289.938 79.2656 288.938 78.8594C287.938 78.4531 287.031 77.5781 286.219 76.2344H286.125L286.031 77.5938C285.969 78.5312 285.547 79 284.766 79H281.062ZM286.219 67.75C286.219 69.8594 286.633 71.5781 287.461 72.9062C288.305 74.2188 289.312 74.875 290.484 74.875C292.594 74.875 293.969 74.1406 294.609 72.6719C295.266 71.1875 295.594 69.1953 295.594 66.6953C295.594 64.1953 295.266 62.2109 294.609 60.7422C293.969 59.2578 292.594 58.5156 290.484 58.5156C289.312 58.5156 288.305 59.1797 287.461 60.5078C286.633 61.8203 286.219 63.5312 286.219 65.6406V67.75ZM339.094 72.4375C339.094 69.3125 340.586 67.0469 343.57 65.6406C346.555 64.2344 349.961 63.4844 353.789 63.3906V62.4531C353.789 61.0156 353.43 60 352.711 59.4062C351.992 58.8125 350.992 58.5156 349.711 58.5156C348.805 58.5156 348 58.6484 347.297 58.9141C346.609 59.1641 346.008 59.4609 345.492 59.8047C344.992 60.1328 344.539 60.4688 344.133 60.8125C343.414 61.4375 342.82 61.4688 342.352 60.9062L340.406 58.5156C339.922 57.9219 340.039 57.3125 340.758 56.6875C341.305 56.2031 341.938 55.7812 342.656 55.4219C343.391 55.0625 344.359 54.7266 345.562 54.4141C346.766 54.0859 348.328 53.9219 350.25 53.9219C353.5 53.9219 355.992 54.6719 357.727 56.1719C359.477 57.6719 360.352 59.8828 360.352 62.8047V77.5938C360.352 78.5312 359.883 79 358.945 79H355.102C354.258 79 353.836 78.5312 353.836 77.5938V76.8906H353.789C352.867 77.7812 351.758 78.4375 350.461 78.8594C349.18 79.2656 348 79.4688 346.922 79.4688C344.359 79.4688 342.414 78.8438 341.086 77.5938C339.758 76.3281 339.094 74.6094 339.094 72.4375ZM346.031 72.2969C346.031 72.8438 346.141 73.3203 346.359 73.7266C346.578 74.1172 346.922 74.4062 347.391 74.5938C347.859 74.7812 348.383 74.875 348.961 74.875C349.758 74.875 350.531 74.7656 351.281 74.5469C352.031 74.3281 352.867 73.8125 353.789 73V67.9141C351.164 68.2109 349.406 68.5938 348.516 69.0625C347.625 69.5312 346.984 70.0156 346.594 70.5156C346.219 71.0156 346.031 71.6094 346.031 72.2969ZM368.156 79C367.219 79 366.75 78.5312 366.75 77.5938V55.7969C366.75 54.8594 367.219 54.3906 368.156 54.3906H371.859C372.797 54.3906 373.266 54.8594 373.266 55.7969V57.7188H373.359C373.766 56.7188 374.445 55.8359 375.398 55.0703C376.352 54.3047 377.477 53.9219 378.773 53.9219C379.664 53.9219 380.398 54.0312 380.977 54.25C381.523 54.4531 381.734 54.8281 381.609 55.375L380.953 58.1641C380.812 58.7891 380.391 58.9766 379.688 58.7266C379.281 58.5859 378.891 58.5156 378.516 58.5156C377.016 58.5156 375.773 59.4141 374.789 61.2109C373.805 63.0078 373.312 65.625 373.312 69.0625V77.5938C373.312 78.5312 372.844 79 371.906 79H368.156ZM383.859 66.6953C383.859 63.2578 384.602 60.2734 386.086 57.7422C387.586 55.1953 390.172 53.9219 393.844 53.9219C395.25 53.9219 396.453 54.125 397.453 54.5312C398.453 54.9375 399.359 55.8125 400.172 57.1562H400.266C400.203 56.5312 400.172 55.9062 400.172 55.2812V45.8125C400.172 44.875 400.641 44.4062 401.578 44.4062H405.328C406.266 44.4062 406.734 44.875 406.734 45.8125V77.5938C406.734 78.5312 406.266 79 405.328 79H401.625C400.844 79 400.422 78.5312 400.359 77.5938L400.266 76.2344H400.172C399.359 77.5781 398.453 78.4531 397.453 78.8594C396.453 79.2656 395.25 79.4688 393.844 79.4688C390.172 79.4688 387.586 78.2031 386.086 75.6719C384.602 73.125 383.859 70.1328 383.859 66.6953ZM390.797 66.6953C390.797 69.1953 391.117 71.1875 391.758 72.6719C392.414 74.1406 393.797 74.875 395.906 74.875C397.078 74.875 398.078 74.2188 398.906 72.9062C399.75 71.5781 400.172 69.8594 400.172 67.75V65.6406C400.172 63.5312 399.75 61.8203 398.906 60.5078C398.078 59.1797 397.078 58.5156 395.906 58.5156C393.797 58.5156 392.414 59.2578 391.758 60.7422C391.117 62.2109 390.797 64.1953 390.797 66.6953Z"/>
</mask>
<path d="M126.891 79C125.797 79 125.25 78.4141 125.25 77.2422V47.1484C125.25 45.9766 125.797 45.3906 126.891 45.3906H130.688C131.625 45.3906 132.094 45.9766 132.094 47.1484V73.1875H145.758C146.93 73.1875 147.516 73.6953 147.516 74.7109V77.4766C147.516 78.4922 146.93 79 145.758 79H126.891ZM150.609 66.6953C150.609 62.7422 151.594 59.625 153.562 57.3438C155.547 55.0625 158.344 53.9219 161.953 53.9219C166.141 53.9219 169.25 55 171.281 57.1562C173.312 59.3125 174.328 62.7812 174.328 67.5625C174.328 68.5 173.891 68.9688 173.016 68.9688H157.547C157.797 71.5625 158.438 73.1953 159.469 73.8672C160.5 74.5391 161.695 74.875 163.055 74.875C164.352 74.875 165.344 74.7031 166.031 74.3594C166.719 74.0156 167.297 73.5469 167.766 72.9531C168.297 72.2656 168.953 72.1562 169.734 72.625L172.078 74.0547C173 74.6172 173.133 75.2891 172.477 76.0703C171.523 77.2109 170.406 78.0625 169.125 78.625C167.844 79.1875 165.82 79.4688 163.055 79.4688C158.57 79.4688 155.375 78.3281 153.469 76.0469C151.562 73.7656 150.609 70.6484 150.609 66.6953ZM157.57 64.2812H167.766C167.766 62.5938 167.344 61.2188 166.5 60.1562C165.656 59.0781 164.312 58.5391 162.469 58.5391C161 58.5391 159.836 59.0547 158.977 60.0859C158.117 61.1016 157.648 62.5 157.57 64.2812ZM178.125 72.4375C178.125 69.3125 179.617 67.0469 182.602 65.6406C185.586 64.2344 188.992 63.4844 192.82 63.3906V62.4531C192.82 61.0156 192.461 60 191.742 59.4062C191.023 58.8125 190.023 58.5156 188.742 58.5156C187.836 58.5156 187.031 58.6484 186.328 58.9141C185.641 59.1641 185.039 59.4609 184.523 59.8047C184.023 60.1328 183.57 60.4688 183.164 60.8125C182.445 61.4375 181.852 61.4688 181.383 60.9062L179.438 58.5156C178.953 57.9219 179.07 57.3125 179.789 56.6875C180.336 56.2031 180.969 55.7812 181.688 55.4219C182.422 55.0625 183.391 54.7266 184.594 54.4141C185.797 54.0859 187.359 53.9219 189.281 53.9219C192.531 53.9219 195.023 54.6719 196.758 56.1719C198.508 57.6719 199.383 59.8828 199.383 62.8047V77.5938C199.383 78.5312 198.914 79 197.977 79H194.133C193.289 79 192.867 78.5312 192.867 77.5938V76.8906H192.82C191.898 77.7812 190.789 78.4375 189.492 78.8594C188.211 79.2656 187.031 79.4688 185.953 79.4688C183.391 79.4688 181.445 78.8438 180.117 77.5938C178.789 76.3281 178.125 74.6094 178.125 72.4375ZM185.062 72.2969C185.062 72.8438 185.172 73.3203 185.391 73.7266C185.609 74.1172 185.953 74.4062 186.422 74.5938C186.891 74.7812 187.414 74.875 187.992 74.875C188.789 74.875 189.562 74.7656 190.312 74.5469C191.062 74.3281 191.898 73.8125 192.82 73V67.9141C190.195 68.2109 188.438 68.5938 187.547 69.0625C186.656 69.5312 186.016 70.0156 185.625 70.5156C185.25 71.0156 185.062 71.6094 185.062 72.2969ZM204.469 66.6953C204.469 63.2578 205.211 60.2734 206.695 57.7422C208.195 55.1953 210.781 53.9219 214.453 53.9219C215.859 53.9219 217.062 54.125 218.062 54.5312C219.062 54.9375 219.969 55.8125 220.781 57.1562H220.875C220.812 56.5312 220.781 55.9062 220.781 55.2812V45.8125C220.781 44.875 221.25 44.4062 222.188 44.4062H225.938C226.875 44.4062 227.344 44.875 227.344 45.8125V77.5938C227.344 78.5312 226.875 79 225.938 79H222.234C221.453 79 221.031 78.5312 220.969 77.5938L220.875 76.2344H220.781C219.969 77.5781 219.062 78.4531 218.062 78.8594C217.062 79.2656 215.859 79.4688 214.453 79.4688C210.781 79.4688 208.195 78.2031 206.695 75.6719C205.211 73.125 204.469 70.1328 204.469 66.6953ZM211.406 66.6953C211.406 69.1953 211.727 71.1875 212.367 72.6719C213.023 74.1406 214.406 74.875 216.516 74.875C217.688 74.875 218.688 74.2188 219.516 72.9062C220.359 71.5781 220.781 69.8594 220.781 67.75V65.6406C220.781 63.5312 220.359 61.8203 219.516 60.5078C218.688 59.1797 217.688 58.5156 216.516 58.5156C214.406 58.5156 213.023 59.2578 212.367 60.7422C211.727 62.2109 211.406 64.1953 211.406 66.6953ZM232.406 66.6953C232.406 62.7422 233.391 59.625 235.359 57.3438C237.344 55.0625 240.141 53.9219 243.75 53.9219C247.938 53.9219 251.047 55 253.078 57.1562C255.109 59.3125 256.125 62.7812 256.125 67.5625C256.125 68.5 255.688 68.9688 254.812 68.9688H239.344C239.594 71.5625 240.234 73.1953 241.266 73.8672C242.297 74.5391 243.492 74.875 244.852 74.875C246.148 74.875 247.141 74.7031 247.828 74.3594C248.516 74.0156 249.094 73.5469 249.562 72.9531C250.094 72.2656 250.75 72.1562 251.531 72.625L253.875 74.0547C254.797 74.6172 254.93 75.2891 254.273 76.0703C253.32 77.2109 252.203 78.0625 250.922 78.625C249.641 79.1875 247.617 79.4688 244.852 79.4688C240.367 79.4688 237.172 78.3281 235.266 76.0469C233.359 73.7656 232.406 70.6484 232.406 66.6953ZM239.367 64.2812H249.562C249.562 62.5938 249.141 61.2188 248.297 60.1562C247.453 59.0781 246.109 58.5391 244.266 58.5391C242.797 58.5391 241.633 59.0547 240.773 60.0859C239.914 61.1016 239.445 62.5 239.367 64.2812ZM262.641 79C261.703 79 261.234 78.5312 261.234 77.5938V55.7969C261.234 54.8594 261.703 54.3906 262.641 54.3906H266.344C267.281 54.3906 267.75 54.8594 267.75 55.7969V57.7188H267.844C268.25 56.7188 268.93 55.8359 269.883 55.0703C270.836 54.3047 271.961 53.9219 273.258 53.9219C274.148 53.9219 274.883 54.0312 275.461 54.25C276.008 54.4531 276.219 54.8281 276.094 55.375L275.438 58.1641C275.297 58.7891 274.875 58.9766 274.172 58.7266C273.766 58.5859 273.375 58.5156 273 58.5156C271.5 58.5156 270.258 59.4141 269.273 61.2109C268.289 63.0078 267.797 65.625 267.797 69.0625V77.5938C267.797 78.5312 267.328 79 266.391 79H262.641ZM281.062 79C280.125 79 279.656 78.5312 279.656 77.5938V45.8125C279.656 44.875 280.125 44.4062 281.062 44.4062H284.812C285.75 44.4062 286.219 44.875 286.219 45.8125V55.2812C286.219 55.9062 286.188 56.5312 286.125 57.1562H286.219C287.031 55.8125 287.938 54.9375 288.938 54.5312C289.938 54.125 291.141 53.9219 292.547 53.9219C296.219 53.9219 298.797 55.1953 300.281 57.7422C301.781 60.2734 302.531 63.2578 302.531 66.6953C302.531 70.1328 301.781 73.125 300.281 75.6719C298.797 78.2031 296.219 79.4688 292.547 79.4688C291.141 79.4688 289.938 79.2656 288.938 78.8594C287.938 78.4531 287.031 77.5781 286.219 76.2344H286.125L286.031 77.5938C285.969 78.5312 285.547 79 284.766 79H281.062ZM286.219 67.75C286.219 69.8594 286.633 71.5781 287.461 72.9062C288.305 74.2188 289.312 74.875 290.484 74.875C292.594 74.875 293.969 74.1406 294.609 72.6719C295.266 71.1875 295.594 69.1953 295.594 66.6953C295.594 64.1953 295.266 62.2109 294.609 60.7422C293.969 59.2578 292.594 58.5156 290.484 58.5156C289.312 58.5156 288.305 59.1797 287.461 60.5078C286.633 61.8203 286.219 63.5312 286.219 65.6406V67.75ZM339.094 72.4375C339.094 69.3125 340.586 67.0469 343.57 65.6406C346.555 64.2344 349.961 63.4844 353.789 63.3906V62.4531C353.789 61.0156 353.43 60 352.711 59.4062C351.992 58.8125 350.992 58.5156 349.711 58.5156C348.805 58.5156 348 58.6484 347.297 58.9141C346.609 59.1641 346.008 59.4609 345.492 59.8047C344.992 60.1328 344.539 60.4688 344.133 60.8125C343.414 61.4375 342.82 61.4688 342.352 60.9062L340.406 58.5156C339.922 57.9219 340.039 57.3125 340.758 56.6875C341.305 56.2031 341.938 55.7812 342.656 55.4219C343.391 55.0625 344.359 54.7266 345.562 54.4141C346.766 54.0859 348.328 53.9219 350.25 53.9219C353.5 53.9219 355.992 54.6719 357.727 56.1719C359.477 57.6719 360.352 59.8828 360.352 62.8047V77.5938C360.352 78.5312 359.883 79 358.945 79H355.102C354.258 79 353.836 78.5312 353.836 77.5938V76.8906H353.789C352.867 77.7812 351.758 78.4375 350.461 78.8594C349.18 79.2656 348 79.4688 346.922 79.4688C344.359 79.4688 342.414 78.8438 341.086 77.5938C339.758 76.3281 339.094 74.6094 339.094 72.4375ZM346.031 72.2969C346.031 72.8438 346.141 73.3203 346.359 73.7266C346.578 74.1172 346.922 74.4062 347.391 74.5938C347.859 74.7812 348.383 74.875 348.961 74.875C349.758 74.875 350.531 74.7656 351.281 74.5469C352.031 74.3281 352.867 73.8125 353.789 73V67.9141C351.164 68.2109 349.406 68.5938 348.516 69.0625C347.625 69.5312 346.984 70.0156 346.594 70.5156C346.219 71.0156 346.031 71.6094 346.031 72.2969ZM368.156 79C367.219 79 366.75 78.5312 366.75 77.5938V55.7969C366.75 54.8594 367.219 54.3906 368.156 54.3906H371.859C372.797 54.3906 373.266 54.8594 373.266 55.7969V57.7188H373.359C373.766 56.7188 374.445 55.8359 375.398 55.0703C376.352 54.3047 377.477 53.9219 378.773 53.9219C379.664 53.9219 380.398 54.0312 380.977 54.25C381.523 54.4531 381.734 54.8281 381.609 55.375L380.953 58.1641C380.812 58.7891 380.391 58.9766 379.688 58.7266C379.281 58.5859 378.891 58.5156 378.516 58.5156C377.016 58.5156 375.773 59.4141 374.789 61.2109C373.805 63.0078 373.312 65.625 373.312 69.0625V77.5938C373.312 78.5312 372.844 79 371.906 79H368.156ZM383.859 66.6953C383.859 63.2578 384.602 60.2734 386.086 57.7422C387.586 55.1953 390.172 53.9219 393.844 53.9219C395.25 53.9219 396.453 54.125 397.453 54.5312C398.453 54.9375 399.359 55.8125 400.172 57.1562H400.266C400.203 56.5312 400.172 55.9062 400.172 55.2812V45.8125C400.172 44.875 400.641 44.4062 401.578 44.4062H405.328C406.266 44.4062 406.734 44.875 406.734 45.8125V77.5938C406.734 78.5312 406.266 79 405.328 79H401.625C400.844 79 400.422 78.5312 400.359 77.5938L400.266 76.2344H400.172C399.359 77.5781 398.453 78.4531 397.453 78.8594C396.453 79.2656 395.25 79.4688 393.844 79.4688C390.172 79.4688 387.586 78.2031 386.086 75.6719C384.602 73.125 383.859 70.1328 383.859 66.6953ZM390.797 66.6953C390.797 69.1953 391.117 71.1875 391.758 72.6719C392.414 74.1406 393.797 74.875 395.906 74.875C397.078 74.875 398.078 74.2188 398.906 72.9062C399.75 71.5781 400.172 69.8594 400.172 67.75V65.6406C400.172 63.5312 399.75 61.8203 398.906 60.5078C398.078 59.1797 397.078 58.5156 395.906 58.5156C393.797 58.5156 392.414 59.2578 391.758 60.7422C391.117 62.2109 390.797 64.1953 390.797 66.6953Z" fill="white"/>
<path d="M132.094 73.1875H131.094V74.1875H132.094V73.1875ZM126.891 78C126.516 78 126.414 77.903 126.391 77.8782C126.356 77.8405 126.25 77.6905 126.25 77.2422H124.25C124.25 77.9658 124.417 78.6947 124.929 79.2429C125.453 79.8041 126.171 80 126.891 80V78ZM126.25 77.2422V47.1484H124.25V77.2422H126.25ZM126.25 47.1484C126.25 46.7001 126.356 46.5501 126.391 46.5124C126.414 46.4876 126.516 46.3906 126.891 46.3906V44.3906C126.171 44.3906 125.453 44.5866 124.929 45.1478C124.417 45.696 124.25 46.4249 124.25 47.1484H126.25ZM126.891 46.3906H130.688V44.3906H126.891V46.3906ZM130.688 46.3906C130.819 46.3906 130.889 46.4114 130.918 46.4236C130.941 46.4332 130.951 46.4415 130.961 46.4548C130.994 46.4951 131.094 46.6693 131.094 47.1484H133.094C133.094 46.4557 132.96 45.751 132.523 45.2054C132.052 44.6171 131.377 44.3906 130.688 44.3906V46.3906ZM131.094 47.1484V73.1875H133.094V47.1484H131.094ZM132.094 74.1875H145.758V72.1875H132.094V74.1875ZM145.758 74.1875C146.222 74.1875 146.383 74.2911 146.421 74.324C146.432 74.3333 146.516 74.3975 146.516 74.7109H148.516C148.516 74.0087 148.306 73.3113 147.731 72.8127C147.183 72.3378 146.466 72.1875 145.758 72.1875V74.1875ZM146.516 74.7109V77.4766H148.516V74.7109H146.516ZM146.516 77.4766C146.516 77.79 146.432 77.8542 146.421 77.8635C146.383 77.8964 146.222 78 145.758 78V80C146.466 80 147.183 79.8497 147.731 79.3748C148.306 78.8762 148.516 78.1788 148.516 77.4766H146.516ZM145.758 78H126.891V80H145.758V78ZM153.562 57.3438L152.808 56.6874L152.805 56.6904L153.562 57.3438ZM157.547 68.9688V67.9688H156.446L156.551 69.0647L157.547 68.9688ZM167.766 72.9531L168.551 73.5728L168.557 73.5646L167.766 72.9531ZM169.734 72.625L170.255 71.7713L170.249 71.7675L169.734 72.625ZM172.078 74.0547L172.599 73.201L172.599 73.201L172.078 74.0547ZM172.477 76.0703L171.711 75.4271L171.709 75.4291L172.477 76.0703ZM157.57 64.2812L156.571 64.2374L156.525 65.2812H157.57V64.2812ZM167.766 64.2812V65.2812H168.766V64.2812H167.766ZM166.5 60.1562L165.712 60.7726L165.717 60.7781L166.5 60.1562ZM158.977 60.0859L159.74 60.7319L159.745 60.7261L158.977 60.0859ZM151.609 66.6953C151.609 62.906 152.551 60.0464 154.32 57.9971L152.805 56.6904C150.637 59.2036 149.609 62.5784 149.609 66.6953H151.609ZM154.317 58.0001C156.074 55.9796 158.572 54.9219 161.953 54.9219V52.9219C158.116 52.9219 155.019 54.1454 152.808 56.6874L154.317 58.0001ZM161.953 54.9219C165.981 54.9219 168.778 55.9576 170.553 57.8419L172.009 56.4706C169.722 54.0424 166.3 52.9219 161.953 52.9219V54.9219ZM170.553 57.8419C172.329 59.7271 173.328 62.8874 173.328 67.5625H175.328C175.328 62.6751 174.296 58.8979 172.009 56.4706L170.553 57.8419ZM173.328 67.5625C173.328 67.8936 173.249 67.9557 173.269 67.9349C173.301 67.901 173.281 67.9688 173.016 67.9688V69.9688C173.626 69.9688 174.262 69.8021 174.731 69.2995C175.188 68.8099 175.328 68.1689 175.328 67.5625H173.328ZM173.016 67.9688H157.547V69.9688H173.016V67.9688ZM156.551 69.0647C156.682 70.4137 156.918 71.5703 157.284 72.5039C157.649 73.4347 158.173 74.2164 158.923 74.7051L160.015 73.0293C159.733 72.8461 159.421 72.4754 159.146 71.7734C158.871 71.0742 158.662 70.1175 158.542 68.8728L156.551 69.0647ZM158.923 74.7051C160.133 75.4936 161.522 75.875 163.055 75.875V73.875C161.868 73.875 160.867 73.5845 160.015 73.0293L158.923 74.7051ZM163.055 75.875C164.414 75.875 165.588 75.6992 166.478 75.2538L165.584 73.4649C165.1 73.7071 164.289 73.875 163.055 73.875V75.875ZM166.478 75.2538C167.295 74.8455 167.989 74.2837 168.551 73.5728L166.981 72.3335C166.605 72.8101 166.142 73.1858 165.584 73.4649L166.478 75.2538ZM168.557 73.5646C168.717 73.3576 168.81 73.3437 168.821 73.3419C168.84 73.3386 168.958 73.3252 169.22 73.4825L170.249 71.7675C169.73 71.456 169.128 71.263 168.492 71.3691C167.846 71.4767 167.346 71.8612 166.974 72.3417L168.557 73.5646ZM169.214 73.4787L171.557 74.9084L172.599 73.201L170.255 71.7713L169.214 73.4787ZM171.557 74.9083C171.914 75.1263 171.901 75.2373 171.888 75.1744C171.872 75.0903 171.942 75.1518 171.711 75.4271L173.242 76.7135C173.667 76.2076 174 75.5425 173.85 74.7865C173.705 74.0518 173.164 73.5456 172.599 73.201L171.557 74.9083ZM171.709 75.4291C170.849 76.4588 169.854 77.2127 168.723 77.7094L169.527 79.5406C170.958 78.9123 172.198 77.963 173.244 76.7115L171.709 75.4291ZM168.723 77.7094C167.64 78.1848 165.791 78.4688 163.055 78.4688V80.4688C165.85 80.4688 168.047 80.1902 169.527 79.5406L168.723 77.7094ZM163.055 78.4688C158.714 78.4688 155.872 77.3637 154.236 75.4057L152.701 76.6881C154.878 79.2925 158.427 80.4688 163.055 80.4688V78.4688ZM154.236 75.4057C152.524 73.3561 151.609 70.4919 151.609 66.6953H149.609C149.609 70.805 150.601 74.1751 152.701 76.6881L154.236 75.4057ZM157.57 65.2812H167.766V63.2812H157.57V65.2812ZM168.766 64.2812C168.766 62.4243 168.299 60.8133 167.283 59.5344L165.717 60.7781C166.389 61.6242 166.766 62.7632 166.766 64.2812H168.766ZM167.288 59.5399C166.193 58.142 164.506 57.5391 162.469 57.5391V59.5391C164.119 59.5391 165.119 60.0143 165.712 60.7726L167.288 59.5399ZM162.469 57.5391C160.735 57.5391 159.277 58.1632 158.208 59.4458L159.745 60.7261C160.395 59.9461 161.265 59.5391 162.469 59.5391V57.5391ZM158.213 59.44C157.169 60.6742 156.656 62.3098 156.571 64.2374L158.569 64.3251C158.641 62.6902 159.065 61.529 159.74 60.7319L158.213 59.44ZM192.82 63.3906L192.845 64.3903L193.82 64.3664V63.3906H192.82ZM186.328 58.9141L186.67 59.8539L186.682 59.8495L186.328 58.9141ZM184.523 59.8047L185.072 60.6408L185.078 60.6367L184.523 59.8047ZM183.164 60.8125L182.518 60.049L182.508 60.0579L183.164 60.8125ZM181.383 60.9062L180.607 61.5375L180.615 61.5464L181.383 60.9062ZM179.438 58.5156L180.213 57.8845L180.212 57.8835L179.438 58.5156ZM179.789 56.6875L180.445 57.4421L180.452 57.4361L179.789 56.6875ZM181.688 55.4219L181.248 54.5236L181.24 54.5274L181.688 55.4219ZM184.594 54.4141L184.845 55.382L184.857 55.3788L184.594 54.4141ZM196.758 56.1719L196.104 56.9282L196.107 56.9311L196.758 56.1719ZM192.867 76.8906H193.867V75.8906H192.867V76.8906ZM192.82 76.8906V75.8906H192.416L192.126 76.1714L192.82 76.8906ZM189.492 78.8594L189.794 79.8126L189.802 79.8103L189.492 78.8594ZM180.117 77.5938L179.427 78.3177L179.432 78.3219L180.117 77.5938ZM185.391 73.7266L184.51 74.2007L184.514 74.2079L184.518 74.2152L185.391 73.7266ZM192.82 73L193.482 73.7502L193.82 73.4516V73H192.82ZM192.82 67.9141H193.82V66.7946L192.708 66.9204L192.82 67.9141ZM185.625 70.5156L184.837 69.9L184.831 69.9077L184.825 69.9156L185.625 70.5156ZM179.125 72.4375C179.125 71.04 179.456 69.8904 180.079 68.9446C180.704 67.9954 181.666 67.187 183.028 66.5452L182.175 64.736C180.553 65.5005 179.276 66.528 178.409 67.8445C177.54 69.1643 177.125 70.71 177.125 72.4375H179.125ZM183.028 66.5452C185.868 65.2071 189.134 64.4812 192.845 64.3903L192.796 62.3909C188.851 62.4875 185.304 63.2617 182.175 64.736L183.028 66.5452ZM193.82 63.3906V62.4531H191.82V63.3906H193.82ZM193.82 62.4531C193.82 60.8803 193.429 59.5028 192.379 58.6353L191.105 60.1772C191.493 60.4972 191.82 61.151 191.82 62.4531H193.82ZM192.379 58.6353C191.424 57.8464 190.169 57.5156 188.742 57.5156V59.5156C189.878 59.5156 190.623 59.7786 191.105 60.1772L192.379 58.6353ZM188.742 57.5156C187.739 57.5156 186.811 57.6625 185.975 57.9786L186.682 59.8495C187.251 59.6344 187.933 59.5156 188.742 59.5156V57.5156ZM185.986 57.9743C185.237 58.2468 184.561 58.5775 183.969 58.9726L185.078 60.6367C185.517 60.3444 186.044 60.0813 186.67 59.8539L185.986 57.9743ZM183.975 58.9686C183.445 59.3163 182.959 59.6762 182.518 60.0491L183.81 61.5759C184.182 61.2613 184.602 60.9493 185.072 60.6407L183.975 58.9686ZM182.508 60.0579C182.374 60.1744 182.272 60.2403 182.201 60.2755C182.132 60.31 182.11 60.307 182.127 60.3061C182.151 60.3048 182.183 60.3113 182.205 60.3224C182.221 60.3302 182.2 60.3247 182.151 60.2661L180.615 61.5464C180.999 62.0073 181.547 62.3394 182.232 62.3033C182.851 62.2708 183.387 61.944 183.82 61.5671L182.508 60.0579ZM182.158 60.2751L180.213 57.8845L178.662 59.1468L180.607 61.5374L182.158 60.2751ZM180.212 57.8835C180.156 57.8143 180.144 57.7779 180.143 57.7755C180.143 57.7745 180.144 57.7786 180.145 57.7863C180.145 57.7941 180.145 57.8 180.144 57.8021C180.143 57.8072 180.169 57.6821 180.445 57.4421L179.133 55.9329C178.69 56.3179 178.298 56.8099 178.18 57.4244C178.053 58.0871 178.281 58.6803 178.663 59.1478L180.212 57.8835ZM180.452 57.4361C180.928 57.015 181.486 56.6405 182.135 56.3163L181.24 54.5274C180.451 54.922 179.744 55.3913 179.126 55.9389L180.452 57.4361ZM182.127 56.3201C182.779 56.0012 183.677 55.6853 184.845 55.3819L184.342 53.4462C183.104 53.7678 182.065 54.1238 181.248 54.5237L182.127 56.3201ZM184.857 55.3788C185.941 55.0831 187.406 54.9219 189.281 54.9219V52.9219C187.313 52.9219 185.653 53.0888 184.331 53.4493L184.857 55.3788ZM189.281 54.9219C192.39 54.9219 194.614 55.64 196.104 56.9282L197.412 55.4155C195.433 53.7038 192.672 52.9219 189.281 52.9219V54.9219ZM196.107 56.9311C197.579 58.1924 198.383 60.0905 198.383 62.8047H200.383C200.383 59.6751 199.437 57.1513 197.409 55.4126L196.107 56.9311ZM198.383 62.8047V77.5938H200.383V62.8047H198.383ZM198.383 77.5938C198.383 77.9084 198.305 77.9606 198.324 77.9413C198.343 77.922 198.291 78 197.977 78V80C198.599 80 199.25 79.8436 199.738 79.3555C200.226 78.8675 200.383 78.2166 200.383 77.5938H198.383ZM197.977 78H194.133V80H197.977V78ZM194.133 78C194.012 78 193.95 77.9829 193.926 77.9744C193.909 77.9679 193.917 77.968 193.927 77.9795C193.946 78.0004 193.867 77.9328 193.867 77.5938H191.867C191.867 78.1922 192 78.8277 192.44 79.3174C192.899 79.8272 193.528 80 194.133 80V78ZM193.867 77.5938V76.8906H191.867V77.5938H193.867ZM192.867 75.8906H192.82V77.8906H192.867V75.8906ZM192.126 76.1714C191.32 76.9498 190.345 77.5305 189.183 77.9084L189.802 79.8103C191.233 79.3445 192.477 78.6127 193.515 77.6098L192.126 76.1714ZM189.19 77.9061C187.983 78.2887 186.907 78.4688 185.953 78.4688V80.4688C187.155 80.4688 188.438 80.2425 189.794 79.8126L189.19 77.9061ZM185.953 78.4688C183.542 78.4688 181.881 77.881 180.803 76.8656L179.432 78.3219C181.009 79.8065 183.24 80.4688 185.953 80.4688V78.4688ZM180.807 76.8698C179.713 75.8275 179.125 74.3903 179.125 72.4375H177.125C177.125 74.8285 177.865 76.8288 179.427 78.3177L180.807 76.8698ZM184.062 72.2969C184.062 72.9786 184.2 73.6239 184.51 74.2007L186.271 73.2525C186.144 73.0167 186.062 72.7089 186.062 72.2969H184.062ZM184.518 74.2152C184.863 74.8308 185.398 75.2612 186.05 75.5222L186.793 73.6653C186.508 73.5513 186.356 73.4036 186.263 73.238L184.518 74.2152ZM186.05 75.5222C186.653 75.7633 187.305 75.875 187.992 75.875V73.875C187.523 73.875 187.128 73.7992 186.793 73.6653L186.05 75.5222ZM187.992 75.875C188.882 75.875 189.75 75.7527 190.592 75.5069L190.033 73.5869C189.375 73.7786 188.696 73.875 187.992 73.875V75.875ZM190.592 75.5069C191.541 75.2302 192.506 74.61 193.482 73.7502L192.159 72.2498C191.291 73.015 190.584 73.4261 190.033 73.5869L190.592 75.5069ZM193.82 73V67.9141H191.82V73H193.82ZM192.708 66.9204C190.098 67.2156 188.16 67.6097 187.081 68.1776L188.013 69.9474C188.715 69.5778 190.293 69.2063 192.933 68.9077L192.708 66.9204ZM187.081 68.1776C186.131 68.6779 185.351 69.2421 184.837 69.9L186.413 71.1313C186.68 70.7892 187.182 70.3846 188.013 69.9474L187.081 68.1776ZM184.825 69.9156C184.307 70.6061 184.062 71.4158 184.062 72.2969H186.062C186.062 71.8029 186.193 71.4251 186.425 71.1156L184.825 69.9156ZM206.695 57.7422L205.834 57.2347L205.833 57.2363L206.695 57.7422ZM220.781 57.1562L219.926 57.6737L220.217 58.1562H220.781V57.1562ZM220.875 57.1562V58.1562H221.98L221.87 57.0567L220.875 57.1562ZM220.969 77.5938L221.967 77.5272L221.966 77.5249L220.969 77.5938ZM220.875 76.2344L221.873 76.1656L221.808 75.2344H220.875V76.2344ZM220.781 76.2344V75.2344H220.217L219.926 75.717L220.781 76.2344ZM218.062 78.8594L217.686 77.9329L218.062 78.8594ZM206.695 75.6719L205.831 76.1754L205.835 76.1817L206.695 75.6719ZM212.367 72.6719L211.449 73.0682L211.454 73.0798L212.367 72.6719ZM219.516 72.9062L218.672 72.37L218.67 72.3726L219.516 72.9062ZM219.516 60.5078L218.667 61.037L218.674 61.0486L219.516 60.5078ZM212.367 60.7422L211.453 60.3378L211.451 60.3424L212.367 60.7422ZM205.469 66.6953C205.469 63.4049 206.178 60.6013 207.558 58.248L205.833 57.2363C204.244 59.9455 203.469 63.1108 203.469 66.6953H205.469ZM207.557 58.2497C208.832 56.0851 211.036 54.9219 214.453 54.9219V52.9219C210.527 52.9219 207.559 54.3055 205.834 57.2347L207.557 58.2497ZM214.453 54.9219C215.768 54.9219 216.836 55.1123 217.686 55.4577L218.439 53.6048C217.289 53.1377 215.951 52.9219 214.453 52.9219V54.9219ZM217.686 55.4577C218.414 55.7534 219.176 56.4337 219.926 57.6737L221.637 56.6388C220.762 55.1913 219.711 54.1216 218.439 53.6048L217.686 55.4577ZM220.781 58.1562H220.875V56.1562H220.781V58.1562ZM221.87 57.0567C221.811 56.4646 221.781 55.8729 221.781 55.2812H219.781C219.781 55.9396 219.814 56.5979 219.88 57.2558L221.87 57.0567ZM221.781 55.2812V45.8125H219.781V55.2812H221.781ZM221.781 45.8125C221.781 45.4979 221.859 45.4456 221.84 45.4649C221.821 45.4842 221.873 45.4062 222.188 45.4062V43.4062C221.565 43.4062 220.914 43.5627 220.426 44.0507C219.938 44.5388 219.781 45.1896 219.781 45.8125H221.781ZM222.188 45.4062H225.938V43.4062H222.188V45.4062ZM225.938 45.4062C226.252 45.4062 226.304 45.4842 226.285 45.4649C226.266 45.4456 226.344 45.4979 226.344 45.8125H228.344C228.344 45.1896 228.187 44.5388 227.699 44.0507C227.211 43.5627 226.56 43.4062 225.938 43.4062V45.4062ZM226.344 45.8125V77.5938H228.344V45.8125H226.344ZM226.344 77.5938C226.344 77.9084 226.266 77.9606 226.285 77.9413C226.304 77.922 226.252 78 225.938 78V80C226.56 80 227.211 79.8436 227.699 79.3555C228.187 78.8675 228.344 78.2166 228.344 77.5938H226.344ZM225.938 78H222.234V80H225.938V78ZM222.234 78C222.138 78 222.092 77.9855 222.079 77.9803C222.072 77.9778 222.071 77.9767 222.073 77.978C222.075 77.9794 222.076 77.9804 222.075 77.9795C222.072 77.9759 221.99 77.8773 221.967 77.5272L219.971 77.6603C220.01 78.2477 220.17 78.8522 220.589 79.3174C221.033 79.8112 221.633 80 222.234 80V78ZM221.966 77.5249L221.873 76.1656L219.877 76.3032L219.971 77.6626L221.966 77.5249ZM220.875 75.2344H220.781V77.2344H220.875V75.2344ZM219.926 75.717C219.176 76.9569 218.414 77.6372 217.686 77.9329L218.439 79.7858C219.711 79.269 220.762 78.1994 221.637 76.7518L219.926 75.717ZM217.686 77.9329C216.836 78.2783 215.768 78.4688 214.453 78.4688V80.4688C215.951 80.4688 217.289 80.2529 218.439 79.7858L217.686 77.9329ZM214.453 78.4688C211.033 78.4688 208.829 77.3112 207.556 75.1621L205.835 76.1817C207.561 79.095 210.53 80.4688 214.453 80.4688V78.4688ZM207.559 75.1683C206.178 72.7981 205.469 69.9856 205.469 66.6953H203.469C203.469 70.28 204.244 73.4519 205.831 76.1754L207.559 75.1683ZM210.406 66.6953C210.406 69.2648 210.733 71.4092 211.449 73.0681L213.285 72.2756C212.72 70.9658 212.406 69.1258 212.406 66.6953H210.406ZM211.454 73.0798C211.871 74.0116 212.533 74.7326 213.427 75.2074C214.305 75.6733 215.352 75.875 216.516 75.875V73.875C215.57 73.875 214.871 73.7095 214.366 73.441C213.877 73.1814 213.52 72.8009 213.28 72.2639L211.454 73.0798ZM216.516 75.875C218.139 75.875 219.417 74.937 220.361 73.4399L218.67 72.3726C217.958 73.5005 217.236 73.875 216.516 73.875V75.875ZM220.36 73.4425C221.334 71.9081 221.781 69.9863 221.781 67.75H219.781C219.781 69.7324 219.384 71.2481 218.672 72.37L220.36 73.4425ZM221.781 67.75V65.6406H219.781V67.75H221.781ZM221.781 65.6406C221.781 63.4051 221.335 61.4883 220.357 59.9671L218.674 61.0486C219.384 62.1523 219.781 63.6574 219.781 65.6406H221.781ZM220.364 59.9787C219.422 58.4679 218.145 57.5156 216.516 57.5156V59.5156C217.23 59.5156 217.953 59.8915 218.667 61.0369L220.364 59.9787ZM216.516 57.5156C215.35 57.5156 214.302 57.7198 213.424 58.1912C212.529 58.6714 211.867 59.3995 211.453 60.3378L213.282 61.1465C213.523 60.6005 213.881 60.2153 214.369 59.9534C214.874 59.6825 215.572 59.5156 216.516 59.5156V57.5156ZM211.451 60.3424C210.733 61.9879 210.406 64.1266 210.406 66.6953H212.406C212.406 64.264 212.72 62.4339 213.284 61.142L211.451 60.3424ZM235.359 57.3438L234.605 56.6874L234.602 56.6904L235.359 57.3438ZM239.344 68.9688V67.9688H238.243L238.348 69.0647L239.344 68.9688ZM249.562 72.9531L250.347 73.5728L250.354 73.5646L249.562 72.9531ZM251.531 72.625L252.052 71.7713L252.046 71.7675L251.531 72.625ZM253.875 74.0547L254.396 73.201L254.396 73.201L253.875 74.0547ZM254.273 76.0703L253.508 75.4271L253.506 75.4291L254.273 76.0703ZM239.367 64.2812L238.368 64.2374L238.322 65.2812H239.367V64.2812ZM249.562 64.2812V65.2812H250.562V64.2812H249.562ZM248.297 60.1562L247.509 60.7726L247.514 60.7781L248.297 60.1562ZM240.773 60.0859L241.537 60.7319L241.542 60.7261L240.773 60.0859ZM233.406 66.6953C233.406 62.906 234.348 60.0464 236.116 57.9971L234.602 56.6904C232.433 59.2036 231.406 62.5784 231.406 66.6953H233.406ZM236.114 58.0001C237.871 55.9796 240.369 54.9219 243.75 54.9219V52.9219C239.913 52.9219 236.816 54.1454 234.605 56.6874L236.114 58.0001ZM243.75 54.9219C247.778 54.9219 250.575 55.9576 252.35 57.8419L253.806 56.4706C251.519 54.0424 248.097 52.9219 243.75 52.9219V54.9219ZM252.35 57.8419C254.126 59.7271 255.125 62.8874 255.125 67.5625H257.125C257.125 62.6751 256.093 58.8979 253.806 56.4706L252.35 57.8419ZM255.125 67.5625C255.125 67.8936 255.046 67.9557 255.066 67.9349C255.097 67.901 255.077 67.9688 254.812 67.9688V69.9688C255.423 69.9688 256.059 69.8021 256.528 69.2995C256.985 68.8099 257.125 68.1689 257.125 67.5625H255.125ZM254.812 67.9688H239.344V69.9688H254.812V67.9688ZM238.348 69.0647C238.478 70.4137 238.715 71.5703 239.081 72.5039C239.446 73.4347 239.97 74.2164 240.72 74.7051L241.812 73.0293C241.53 72.8461 241.218 72.4754 240.943 71.7734C240.668 71.0742 240.459 70.1175 240.339 68.8728L238.348 69.0647ZM240.72 74.7051C241.93 75.4936 243.319 75.875 244.852 75.875V73.875C243.665 73.875 242.664 73.5845 241.812 73.0293L240.72 74.7051ZM244.852 75.875C246.211 75.875 247.385 75.6992 248.275 75.2538L247.381 73.4649C246.897 73.7071 246.086 73.875 244.852 73.875V75.875ZM248.275 75.2538C249.092 74.8455 249.786 74.2837 250.347 73.5728L248.778 72.3335C248.401 72.8101 247.939 73.1858 247.381 73.4649L248.275 75.2538ZM250.354 73.5646C250.514 73.3576 250.607 73.3437 250.618 73.3419C250.637 73.3386 250.755 73.3252 251.017 73.4825L252.046 71.7675C251.527 71.456 250.925 71.263 250.289 71.3691C249.643 71.4767 249.143 71.8612 248.771 72.3417L250.354 73.5646ZM251.01 73.4787L253.354 74.9084L254.396 73.201L252.052 71.7713L251.01 73.4787ZM253.354 74.9083C253.711 75.1263 253.697 75.2373 253.685 75.1744C253.668 75.0903 253.739 75.1518 253.508 75.4271L255.039 76.7135C255.464 76.2076 255.796 75.5425 255.647 74.7865C255.502 74.0518 254.961 73.5456 254.396 73.201L253.354 74.9083ZM253.506 75.4291C252.646 76.4588 251.651 77.2127 250.52 77.7094L251.324 79.5406C252.755 78.9123 253.995 77.963 255.041 76.7115L253.506 75.4291ZM250.52 77.7094C249.437 78.1848 247.588 78.4688 244.852 78.4688V80.4688C247.647 80.4688 249.844 80.1902 251.324 79.5406L250.52 77.7094ZM244.852 78.4688C240.511 78.4688 237.669 77.3637 236.033 75.4057L234.498 76.6881C236.675 79.2925 240.224 80.4688 244.852 80.4688V78.4688ZM236.033 75.4057C234.32 73.3561 233.406 70.4919 233.406 66.6953H231.406C231.406 70.805 232.398 74.1751 234.498 76.6881L236.033 75.4057ZM239.367 65.2812H249.562V63.2812H239.367V65.2812ZM250.562 64.2812C250.562 62.4243 250.096 60.8133 249.08 59.5344L247.514 60.7781C248.186 61.6242 248.562 62.7632 248.562 64.2812H250.562ZM249.084 59.5399C247.99 58.142 246.303 57.5391 244.266 57.5391V59.5391C245.916 59.5391 246.916 60.0143 247.509 60.7726L249.084 59.5399ZM244.266 57.5391C242.532 57.5391 241.074 58.1632 240.005 59.4458L241.542 60.7261C242.192 59.9461 243.062 59.5391 244.266 59.5391V57.5391ZM240.01 59.44C238.966 60.6742 238.453 62.3098 238.368 64.2374L240.366 64.3251C240.438 62.6902 240.862 61.529 241.537 60.7319L240.01 59.44ZM267.75 57.7188H266.75V58.7188H267.75V57.7188ZM267.844 57.7188V58.7188H268.517L268.77 58.0951L267.844 57.7188ZM275.461 54.25L275.107 55.1853L275.113 55.1874L275.461 54.25ZM276.094 55.375L277.067 55.604L277.069 55.5978L276.094 55.375ZM275.438 58.1641L274.464 57.935L274.462 57.9445L275.438 58.1641ZM274.172 58.7266L274.507 57.7843L274.499 57.7816L274.172 58.7266ZM262.641 78C262.326 78 262.274 77.922 262.293 77.9413C262.312 77.9606 262.234 77.9084 262.234 77.5938H260.234C260.234 78.2166 260.391 78.8675 260.879 79.3555C261.367 79.8436 262.018 80 262.641 80V78ZM262.234 77.5938V55.7969H260.234V77.5938H262.234ZM262.234 55.7969C262.234 55.4823 262.312 55.43 262.293 55.4493C262.274 55.4686 262.326 55.3906 262.641 55.3906V53.3906C262.018 53.3906 261.367 53.547 260.879 54.0351C260.391 54.5231 260.234 55.174 260.234 55.7969H262.234ZM262.641 55.3906H266.344V53.3906H262.641V55.3906ZM266.344 55.3906C266.658 55.3906 266.711 55.4686 266.691 55.4493C266.672 55.43 266.75 55.4823 266.75 55.7969H268.75C268.75 55.174 268.594 54.5231 268.106 54.0351C267.617 53.547 266.967 53.3906 266.344 53.3906V55.3906ZM266.75 55.7969V57.7188H268.75V55.7969H266.75ZM267.75 58.7188H267.844V56.7188H267.75V58.7188ZM268.77 58.0951C269.104 57.2729 269.671 56.5233 270.509 55.8499L269.257 54.2907C268.189 55.1486 267.396 56.1646 266.917 57.3424L268.77 58.0951ZM270.509 55.8499C271.273 55.236 272.174 54.9219 273.258 54.9219V52.9219C271.748 52.9219 270.399 53.3734 269.257 54.2907L270.509 55.8499ZM273.258 54.9219C274.076 54.9219 274.68 55.0237 275.107 55.1853L275.815 53.3147C275.086 53.0388 274.221 52.9219 273.258 52.9219V54.9219ZM275.113 55.1874C275.144 55.1991 275.166 55.2094 275.181 55.2172C275.195 55.2249 275.201 55.2296 275.202 55.2296C275.202 55.2296 275.2 55.2285 275.197 55.2261C275.195 55.2236 275.191 55.22 275.187 55.2151C275.178 55.205 275.167 55.1912 275.158 55.1739C275.148 55.1565 275.141 55.139 275.136 55.1229C275.131 55.107 275.129 55.0954 275.129 55.0899C275.128 55.0798 275.131 55.0977 275.119 55.1522L277.069 55.5978C277.169 55.1577 277.161 54.6566 276.901 54.1933C276.644 53.7363 276.225 53.4671 275.809 53.3126L275.113 55.1874ZM275.12 55.146L274.464 57.935L276.411 58.3931L277.067 55.604L275.12 55.146ZM274.462 57.9445C274.447 58.0109 274.436 58.0119 274.457 57.9816C274.468 57.9652 274.487 57.9424 274.515 57.9186C274.544 57.8945 274.576 57.8744 274.609 57.8596C274.678 57.8294 274.719 57.8345 274.702 57.8336C274.682 57.8325 274.62 57.8246 274.507 57.7843L273.837 59.6688C274.288 59.8293 274.868 59.9333 275.422 59.6872C276.023 59.4198 276.302 58.8766 276.413 58.3836L274.462 57.9445ZM274.499 57.7816C274.003 57.6098 273.501 57.5156 273 57.5156V59.5156C273.249 59.5156 273.529 59.5621 273.845 59.6715L274.499 57.7816ZM273 57.5156C271.004 57.5156 269.483 58.7468 268.396 60.7305L270.15 61.6914C271.033 60.0813 271.996 59.5156 273 59.5156V57.5156ZM268.396 60.7305C267.294 62.7428 266.797 65.5573 266.797 69.0625H268.797C268.797 65.6927 269.284 63.2728 270.15 61.6914L268.396 60.7305ZM266.797 69.0625V77.5938H268.797V69.0625H266.797ZM266.797 77.5938C266.797 77.9084 266.719 77.9606 266.738 77.9413C266.758 77.922 266.705 78 266.391 78V80C267.014 80 267.664 79.8436 268.152 79.3555C268.64 78.8675 268.797 78.2166 268.797 77.5938H266.797ZM266.391 78H262.641V80H266.391V78ZM286.125 57.1562L285.13 57.0567L285.02 58.1562H286.125V57.1562ZM286.219 57.1562V58.1562H286.783L287.074 57.6737L286.219 57.1562ZM300.281 57.7422L299.417 58.2457L299.421 58.252L300.281 57.7422ZM300.281 75.6719L299.42 75.1644L299.419 75.166L300.281 75.6719ZM288.938 78.8594L289.314 77.9329L288.938 78.8594ZM286.219 76.2344L287.074 75.717L286.783 75.2344H286.219V76.2344ZM286.125 76.2344V75.2344H285.192L285.127 76.1656L286.125 76.2344ZM286.031 77.5938L285.034 77.5249L285.033 77.5272L286.031 77.5938ZM287.461 72.9062L286.612 73.4354L286.62 73.447L287.461 72.9062ZM294.609 72.6719L293.695 72.2675L293.693 72.2721L294.609 72.6719ZM294.609 60.7422L293.691 61.1385L293.696 61.1501L294.609 60.7422ZM287.461 60.5078L286.617 59.9716L286.615 59.9742L287.461 60.5078ZM281.062 78C280.748 78 280.696 77.922 280.715 77.9413C280.734 77.9606 280.656 77.9084 280.656 77.5938H278.656C278.656 78.2166 278.813 78.8675 279.301 79.3555C279.789 79.8436 280.44 80 281.062 80V78ZM280.656 77.5938V45.8125H278.656V77.5938H280.656ZM280.656 45.8125C280.656 45.4979 280.734 45.4456 280.715 45.4649C280.696 45.4842 280.748 45.4062 281.062 45.4062V43.4062C280.44 43.4062 279.789 43.5627 279.301 44.0507C278.813 44.5388 278.656 45.1896 278.656 45.8125H280.656ZM281.062 45.4062H284.812V43.4062H281.062V45.4062ZM284.812 45.4062C285.127 45.4062 285.179 45.4842 285.16 45.4649C285.141 45.4456 285.219 45.4979 285.219 45.8125H287.219C287.219 45.1896 287.062 44.5388 286.574 44.0507C286.086 43.5627 285.435 43.4062 284.812 43.4062V45.4062ZM285.219 45.8125V55.2812H287.219V45.8125H285.219ZM285.219 55.2812C285.219 55.8729 285.189 56.4646 285.13 57.0567L287.12 57.2558C287.186 56.5979 287.219 55.9396 287.219 55.2812H285.219ZM286.125 58.1562H286.219V56.1562H286.125V58.1562ZM287.074 57.6737C287.824 56.4337 288.586 55.7534 289.314 55.4577L288.561 53.6048C287.289 54.1216 286.238 55.1913 285.363 56.6388L287.074 57.6737ZM289.314 55.4577C290.164 55.1123 291.232 54.9219 292.547 54.9219V52.9219C291.049 52.9219 289.711 53.1377 288.561 53.6048L289.314 55.4577ZM292.547 54.9219C295.965 54.9219 298.158 56.085 299.417 58.2457L301.145 57.2386C299.436 54.3056 296.473 52.9219 292.547 52.9219V54.9219ZM299.421 58.252C300.815 60.6046 301.531 63.4067 301.531 66.6953H303.531C303.531 63.109 302.747 59.9423 301.142 57.2324L299.421 58.252ZM301.531 66.6953C301.531 69.9838 300.815 72.7948 299.42 75.1644L301.143 76.1794C302.747 73.4552 303.531 70.2818 303.531 66.6953H301.531ZM299.419 75.166C298.161 77.3113 295.967 78.4688 292.547 78.4688V80.4688C296.47 80.4688 299.433 79.095 301.144 76.1777L299.419 75.166ZM292.547 78.4688C291.232 78.4688 290.164 78.2783 289.314 77.9329L288.561 79.7858C289.711 80.2529 291.049 80.4688 292.547 80.4688V78.4688ZM289.314 77.9329C288.586 77.6372 287.824 76.9569 287.074 75.717L285.363 76.7518C286.238 78.1994 287.289 79.269 288.561 79.7858L289.314 77.9329ZM286.219 75.2344H286.125V77.2344H286.219V75.2344ZM285.127 76.1656L285.034 77.5249L287.029 77.6626L287.123 76.3032L285.127 76.1656ZM285.033 77.5272C285.01 77.8773 284.928 77.9759 284.925 77.9795C284.924 77.9804 284.925 77.9794 284.927 77.978C284.929 77.9767 284.928 77.9778 284.921 77.9803C284.908 77.9855 284.862 78 284.766 78V80C285.367 80 285.967 79.8112 286.411 79.3174C286.83 78.8522 286.99 78.2477 287.029 77.6603L285.033 77.5272ZM284.766 78H281.062V80H284.766V78ZM285.219 67.75C285.219 69.9833 285.656 71.9023 286.612 73.4354L288.309 72.3771C287.609 71.2539 287.219 69.7354 287.219 67.75H285.219ZM286.62 73.447C287.579 74.9398 288.863 75.875 290.484 75.875V73.875C289.762 73.875 289.03 73.4977 288.302 72.3655L286.62 73.447ZM290.484 75.875C291.648 75.875 292.694 75.6734 293.569 75.2063C294.461 74.7299 295.118 74.0061 295.526 73.0717L293.693 72.2721C293.46 72.8064 293.11 73.1842 292.627 73.4421C292.126 73.7094 291.43 73.875 290.484 73.875V75.875ZM295.524 73.0762C296.259 71.4145 296.594 69.2669 296.594 66.6953H294.594C294.594 69.1237 294.273 70.9605 293.695 72.2675L295.524 73.0762ZM296.594 66.6953C296.594 64.1246 296.259 61.9826 295.522 60.3342L293.696 61.1501C294.272 62.4392 294.594 64.2661 294.594 66.6953H296.594ZM295.528 60.3459C295.121 59.405 294.465 58.6741 293.573 58.1923C292.697 57.7197 291.649 57.5156 290.484 57.5156V59.5156C291.429 59.5156 292.123 59.6827 292.623 59.9523C293.105 60.2126 293.457 60.595 293.691 61.1384L295.528 60.3459ZM290.484 57.5156C288.857 57.5156 287.574 58.465 286.617 59.9716L288.305 61.044C289.035 59.8943 289.768 59.5156 290.484 59.5156V57.5156ZM286.615 59.9742C285.656 61.4941 285.219 63.4081 285.219 65.6406H287.219C287.219 63.6544 287.609 62.1465 288.307 61.0414L286.615 59.9742ZM285.219 65.6406V67.75H287.219V65.6406H285.219ZM353.789 63.3906L353.814 64.3903L354.789 64.3664V63.3906H353.789ZM347.297 58.9141L347.639 59.8539L347.65 59.8495L347.297 58.9141ZM345.492 59.8047L346.041 60.6408L346.047 60.6367L345.492 59.8047ZM344.133 60.8125L343.487 60.049L343.477 60.0579L344.133 60.8125ZM342.352 60.9062L341.576 61.5375L341.583 61.5464L342.352 60.9062ZM340.406 58.5156L341.182 57.8845L341.181 57.8835L340.406 58.5156ZM340.758 56.6875L341.414 57.4421L341.421 57.4361L340.758 56.6875ZM342.656 55.4219L342.217 54.5236L342.209 54.5274L342.656 55.4219ZM345.562 54.4141L345.814 55.382L345.826 55.3788L345.562 54.4141ZM357.727 56.1719L357.072 56.9282L357.076 56.9311L357.727 56.1719ZM353.836 76.8906H354.836V75.8906H353.836V76.8906ZM353.789 76.8906V75.8906H353.385L353.094 76.1714L353.789 76.8906ZM350.461 78.8594L350.763 79.8126L350.77 79.8103L350.461 78.8594ZM341.086 77.5938L340.396 78.3177L340.401 78.3219L341.086 77.5938ZM346.359 73.7266L345.479 74.2007L345.483 74.2079L345.487 74.2152L346.359 73.7266ZM353.789 73L354.45 73.7502L354.789 73.4516V73H353.789ZM353.789 67.9141H354.789V66.7946L353.677 66.9204L353.789 67.9141ZM346.594 70.5156L345.806 69.9L345.8 69.9077L345.794 69.9156L346.594 70.5156ZM340.094 72.4375C340.094 71.04 340.425 69.8904 341.048 68.9446C341.673 67.9954 342.635 67.187 343.997 66.5452L343.144 64.736C341.522 65.5005 340.245 66.528 339.378 67.8445C338.508 69.1643 338.094 70.71 338.094 72.4375H340.094ZM343.997 66.5452C346.836 65.2071 350.102 64.4812 353.814 64.3903L353.765 62.3909C349.82 62.4875 346.273 63.2617 343.144 64.736L343.997 66.5452ZM354.789 63.3906V62.4531H352.789V63.3906H354.789ZM354.789 62.4531C354.789 60.8803 354.398 59.5028 353.348 58.6353L352.074 60.1772C352.461 60.4972 352.789 61.151 352.789 62.4531H354.789ZM353.348 58.6353C352.393 57.8464 351.138 57.5156 349.711 57.5156V59.5156C350.846 59.5156 351.591 59.7786 352.074 60.1772L353.348 58.6353ZM349.711 57.5156C348.708 57.5156 347.78 57.6625 346.943 57.9786L347.65 59.8495C348.22 59.6344 348.901 59.5156 349.711 59.5156V57.5156ZM346.955 57.9743C346.206 58.2468 345.53 58.5775 344.937 58.9726L346.047 60.6367C346.485 60.3444 347.013 60.0813 347.639 59.8539L346.955 57.9743ZM344.944 58.9686C344.414 59.3163 343.928 59.6762 343.487 60.0491L344.779 61.5759C345.151 61.2613 345.571 60.9493 346.041 60.6407L344.944 58.9686ZM343.477 60.0579C343.343 60.1744 343.24 60.2403 343.17 60.2755C343.101 60.31 343.079 60.307 343.096 60.3061C343.12 60.3048 343.152 60.3113 343.174 60.3224C343.19 60.3302 343.169 60.3247 343.12 60.2661L341.583 61.5464C341.967 62.0073 342.516 62.3394 343.201 62.3033C343.82 62.2708 344.356 61.944 344.789 61.5671L343.477 60.0579ZM343.127 60.2751L341.182 57.8845L339.631 59.1468L341.576 61.5374L343.127 60.2751ZM341.181 57.8835C341.125 57.8143 341.113 57.7779 341.112 57.7755C341.112 57.7745 341.113 57.7786 341.114 57.7863C341.114 57.7941 341.113 57.8 341.113 57.8021C341.112 57.8072 341.138 57.6821 341.414 57.4421L340.102 55.9329C339.659 56.3179 339.267 56.8099 339.149 57.4244C339.021 58.0871 339.25 58.6803 339.631 59.1478L341.181 57.8835ZM341.421 57.4361C341.896 57.015 342.455 56.6405 343.103 56.3163L342.209 54.5274C341.42 54.922 340.713 55.3913 340.095 55.9389L341.421 57.4361ZM343.096 56.3201C343.747 56.0012 344.646 55.6853 345.814 55.3819L345.311 53.4462C344.073 53.7678 343.034 54.1238 342.217 54.5237L343.096 56.3201ZM345.826 55.3788C346.91 55.0831 348.375 54.9219 350.25 54.9219V52.9219C348.282 52.9219 346.621 53.0888 345.299 53.4493L345.826 55.3788ZM350.25 54.9219C353.359 54.9219 355.583 55.64 357.072 56.9282L358.381 55.4155C356.402 53.7038 353.641 52.9219 350.25 52.9219V54.9219ZM357.076 56.9311C358.547 58.1924 359.352 60.0905 359.352 62.8047H361.352C361.352 59.6751 360.406 57.1513 358.377 55.4126L357.076 56.9311ZM359.352 62.8047V77.5938H361.352V62.8047H359.352ZM359.352 77.5938C359.352 77.9084 359.274 77.9606 359.293 77.9413C359.312 77.922 359.26 78 358.945 78V80C359.568 80 360.219 79.8436 360.707 79.3555C361.195 78.8675 361.352 78.2166 361.352 77.5938H359.352ZM358.945 78H355.102V80H358.945V78ZM355.102 78C354.981 78 354.918 77.9829 354.895 77.9744C354.878 77.9679 354.885 77.968 354.896 77.9795C354.915 78.0004 354.836 77.9328 354.836 77.5938H352.836C352.836 78.1922 352.968 78.8277 353.409 79.3174C353.868 79.8272 354.497 80 355.102 80V78ZM354.836 77.5938V76.8906H352.836V77.5938H354.836ZM353.836 75.8906H353.789V77.8906H353.836V75.8906ZM353.094 76.1714C352.289 76.9498 351.313 77.5305 350.152 77.9084L350.77 79.8103C352.202 79.3445 353.446 78.6127 354.484 77.6098L353.094 76.1714ZM350.159 77.9061C348.952 78.2887 347.876 78.4688 346.922 78.4688V80.4688C348.124 80.4688 349.407 80.2425 350.763 79.8126L350.159 77.9061ZM346.922 78.4688C344.51 78.4688 342.85 77.881 341.771 76.8656L340.401 78.3219C341.978 79.8065 344.208 80.4688 346.922 80.4688V78.4688ZM341.776 76.8698C340.682 75.8275 340.094 74.3903 340.094 72.4375H338.094C338.094 74.8285 338.834 76.8288 340.396 78.3177L341.776 76.8698ZM345.031 72.2969C345.031 72.9786 345.168 73.6239 345.479 74.2007L347.24 73.2525C347.113 73.0167 347.031 72.7089 347.031 72.2969H345.031ZM345.487 74.2152C345.832 74.8308 346.367 75.2612 347.019 75.5222L347.762 73.6653C347.477 73.5513 347.325 73.4036 347.232 73.238L345.487 74.2152ZM347.019 75.5222C347.622 75.7633 348.274 75.875 348.961 75.875V73.875C348.492 73.875 348.097 73.7992 347.762 73.6653L347.019 75.5222ZM348.961 75.875C349.851 75.875 350.718 75.7527 351.561 75.5069L351.001 73.5869C350.344 73.7786 349.665 73.875 348.961 73.875V75.875ZM351.561 75.5069C352.51 75.2302 353.475 74.61 354.45 73.7502L353.128 72.2498C352.26 73.015 351.553 73.4261 351.001 73.5869L351.561 75.5069ZM354.789 73V67.9141H352.789V73H354.789ZM353.677 66.9204C351.067 67.2156 349.129 67.6097 348.05 68.1776L348.981 69.9474C349.684 69.5778 351.261 69.2063 353.901 68.9077L353.677 66.9204ZM348.05 68.1776C347.099 68.6779 346.32 69.2421 345.806 69.9L347.382 71.1313C347.649 70.7892 348.151 70.3846 348.981 69.9474L348.05 68.1776ZM345.794 69.9156C345.276 70.6061 345.031 71.4158 345.031 72.2969H347.031C347.031 71.8029 347.162 71.4251 347.394 71.1156L345.794 69.9156ZM373.266 57.7188H372.266V58.7188H373.266V57.7188ZM373.359 57.7188V58.7188H374.033L374.286 58.0951L373.359 57.7188ZM380.977 54.25L380.623 55.1853L380.628 55.1874L380.977 54.25ZM381.609 55.375L382.583 55.604L382.584 55.5978L381.609 55.375ZM380.953 58.1641L379.98 57.935L379.978 57.9445L380.953 58.1641ZM379.688 58.7266L380.023 57.7843L380.015 57.7816L379.688 58.7266ZM368.156 78C367.842 78 367.789 77.922 367.809 77.9413C367.828 77.9606 367.75 77.9084 367.75 77.5938H365.75C365.75 78.2166 365.906 78.8675 366.394 79.3555C366.883 79.8436 367.533 80 368.156 80V78ZM367.75 77.5938V55.7969H365.75V77.5938H367.75ZM367.75 55.7969C367.75 55.4823 367.828 55.43 367.809 55.4493C367.789 55.4686 367.842 55.3906 368.156 55.3906V53.3906C367.533 53.3906 366.883 53.547 366.394 54.0351C365.906 54.5231 365.75 55.174 365.75 55.7969H367.75ZM368.156 55.3906H371.859V53.3906H368.156V55.3906ZM371.859 55.3906C372.174 55.3906 372.226 55.4686 372.207 55.4493C372.188 55.43 372.266 55.4823 372.266 55.7969H374.266C374.266 55.174 374.109 54.5231 373.621 54.0351C373.133 53.547 372.482 53.3906 371.859 53.3906V55.3906ZM372.266 55.7969V57.7188H374.266V55.7969H372.266ZM373.266 58.7188H373.359V56.7188H373.266V58.7188ZM374.286 58.0951C374.62 57.2729 375.186 56.5233 376.025 55.8499L374.772 54.2907C373.704 55.1486 372.911 56.1646 372.433 57.3424L374.286 58.0951ZM376.025 55.8499C376.789 55.236 377.689 54.9219 378.773 54.9219V52.9219C377.264 52.9219 375.914 53.3734 374.772 54.2907L376.025 55.8499ZM378.773 54.9219C379.592 54.9219 380.196 55.0237 380.623 55.1853L381.33 53.3147C380.601 53.0388 379.736 52.9219 378.773 52.9219V54.9219ZM380.628 55.1874C380.66 55.1991 380.682 55.2094 380.696 55.2172C380.711 55.2249 380.717 55.2296 380.717 55.2296C380.717 55.2296 380.716 55.2285 380.713 55.2261C380.71 55.2236 380.707 55.22 380.702 55.2151C380.693 55.205 380.683 55.1912 380.673 55.1739C380.664 55.1565 380.656 55.139 380.651 55.1229C380.647 55.107 380.645 55.0954 380.644 55.0899C380.644 55.0798 380.647 55.0977 380.635 55.1522L382.584 55.5978C382.685 55.1577 382.677 54.6566 382.417 54.1933C382.159 53.7363 381.741 53.4671 381.325 53.3126L380.628 55.1874ZM380.636 55.146L379.98 57.935L381.927 58.3931L382.583 55.604L380.636 55.146ZM379.978 57.9445C379.963 58.0109 379.952 58.0119 379.973 57.9816C379.984 57.9652 380.003 57.9424 380.031 57.9186C380.06 57.8945 380.092 57.8744 380.125 57.8596C380.193 57.8294 380.234 57.8345 380.218 57.8336C380.198 57.8325 380.136 57.8246 380.023 57.7843L379.352 59.6688C379.804 59.8293 380.384 59.9333 380.937 59.6872C381.539 59.4198 381.818 58.8766 381.929 58.3836L379.978 57.9445ZM380.015 57.7816C379.518 57.6098 379.017 57.5156 378.516 57.5156V59.5156C378.764 59.5156 379.044 59.5621 379.36 59.6715L380.015 57.7816ZM378.516 57.5156C376.52 57.5156 374.999 58.7468 373.912 60.7305L375.666 61.6914C376.548 60.0813 377.511 59.5156 378.516 59.5156V57.5156ZM373.912 60.7305C372.81 62.7428 372.312 65.5573 372.312 69.0625H374.312C374.312 65.6927 374.8 63.2728 375.666 61.6914L373.912 60.7305ZM372.312 69.0625V77.5938H374.312V69.0625H372.312ZM372.312 77.5938C372.312 77.9084 372.235 77.9606 372.254 77.9413C372.273 77.922 372.221 78 371.906 78V80C372.529 80 373.18 79.8436 373.668 79.3555C374.156 78.8675 374.312 78.2166 374.312 77.5938H372.312ZM371.906 78H368.156V80H371.906V78ZM386.086 57.7422L385.224 57.2347L385.223 57.2363L386.086 57.7422ZM400.172 57.1562L399.316 57.6737L399.608 58.1562H400.172V57.1562ZM400.266 57.1562V58.1562H401.371L401.261 57.0567L400.266 57.1562ZM400.359 77.5938L401.357 77.5272L401.357 77.5249L400.359 77.5938ZM400.266 76.2344L401.263 76.1656L401.199 75.2344H400.266V76.2344ZM400.172 76.2344V75.2344H399.608L399.316 75.717L400.172 76.2344ZM397.453 78.8594L397.077 77.9329L397.453 78.8594ZM386.086 75.6719L385.222 76.1754L385.226 76.1817L386.086 75.6719ZM391.758 72.6719L390.84 73.0682L390.845 73.0798L391.758 72.6719ZM398.906 72.9062L398.062 72.37L398.061 72.3726L398.906 72.9062ZM398.906 60.5078L398.058 61.037L398.065 61.0486L398.906 60.5078ZM391.758 60.7422L390.843 60.3378L390.841 60.3424L391.758 60.7422ZM384.859 66.6953C384.859 63.4049 385.569 60.6013 386.949 58.248L385.223 57.2363C383.635 59.9455 382.859 63.1108 382.859 66.6953H384.859ZM386.948 58.2497C388.222 56.0851 390.426 54.9219 393.844 54.9219V52.9219C389.917 52.9219 386.949 54.3055 385.224 57.2347L386.948 58.2497ZM393.844 54.9219C395.158 54.9219 396.227 55.1123 397.077 55.4577L397.829 53.6048C396.68 53.1377 395.342 52.9219 393.844 52.9219V54.9219ZM397.077 55.4577C397.805 55.7534 398.566 56.4337 399.316 57.6737L401.028 56.6388C400.152 55.1913 399.102 54.1216 397.829 53.6048L397.077 55.4577ZM400.172 58.1562H400.266V56.1562H400.172V58.1562ZM401.261 57.0567C401.201 56.4646 401.172 55.8729 401.172 55.2812H399.172C399.172 55.9396 399.205 56.5979 399.271 57.2558L401.261 57.0567ZM401.172 55.2812V45.8125H399.172V55.2812H401.172ZM401.172 45.8125C401.172 45.4979 401.25 45.4456 401.231 45.4649C401.211 45.4842 401.264 45.4062 401.578 45.4062V43.4062C400.955 43.4062 400.304 43.5627 399.816 44.0507C399.328 44.5388 399.172 45.1896 399.172 45.8125H401.172ZM401.578 45.4062H405.328V43.4062H401.578V45.4062ZM405.328 45.4062C405.643 45.4062 405.695 45.4842 405.676 45.4649C405.656 45.4456 405.734 45.4979 405.734 45.8125H407.734C407.734 45.1896 407.578 44.5388 407.09 44.0507C406.602 43.5627 405.951 43.4062 405.328 43.4062V45.4062ZM405.734 45.8125V77.5938H407.734V45.8125H405.734ZM405.734 77.5938C405.734 77.9084 405.656 77.9606 405.676 77.9413C405.695 77.922 405.643 78 405.328 78V80C405.951 80 406.602 79.8436 407.09 79.3555C407.578 78.8675 407.734 78.2166 407.734 77.5938H405.734ZM405.328 78H401.625V80H405.328V78ZM401.625 78C401.529 78 401.483 77.9855 401.469 77.9803C401.463 77.9778 401.462 77.9767 401.464 77.978C401.466 77.9794 401.467 77.9804 401.466 77.9795C401.463 77.9759 401.38 77.8773 401.357 77.5272L399.362 77.6603C399.401 78.2477 399.561 78.8522 399.979 79.3174C400.424 79.8112 401.024 80 401.625 80V78ZM401.357 77.5249L401.263 76.1656L399.268 76.3032L399.362 77.6626L401.357 77.5249ZM400.266 75.2344H400.172V77.2344H400.266V75.2344ZM399.316 75.717C398.566 76.9569 397.805 77.6372 397.077 77.9329L397.829 79.7858C399.102 79.269 400.152 78.1994 401.028 76.7518L399.316 75.717ZM397.077 77.9329C396.227 78.2783 395.158 78.4688 393.844 78.4688V80.4688C395.342 80.4688 396.68 80.2529 397.829 79.7858L397.077 77.9329ZM393.844 78.4688C390.424 78.4688 388.22 77.3112 386.946 75.1621L385.226 76.1817C386.952 79.095 389.92 80.4688 393.844 80.4688V78.4688ZM386.95 75.1683C385.568 72.7981 384.859 69.9856 384.859 66.6953H382.859C382.859 70.28 383.635 73.4519 385.222 76.1754L386.95 75.1683ZM389.797 66.6953C389.797 69.2648 390.124 71.4092 390.84 73.0681L392.676 72.2756C392.111 70.9658 391.797 69.1258 391.797 66.6953H389.797ZM390.845 73.0798C391.261 74.0116 391.924 74.7326 392.818 75.2074C393.695 75.6733 394.742 75.875 395.906 75.875V73.875C394.961 73.875 394.262 73.7095 393.756 73.441C393.267 73.1814 392.911 72.8009 392.671 72.2639L390.845 73.0798ZM395.906 75.875C397.53 75.875 398.807 74.937 399.752 73.4399L398.061 72.3726C397.349 73.5005 396.626 73.875 395.906 73.875V75.875ZM399.75 73.4425C400.725 71.9081 401.172 69.9863 401.172 67.75H399.172C399.172 69.7324 398.775 71.2481 398.062 72.37L399.75 73.4425ZM401.172 67.75V65.6406H399.172V67.75H401.172ZM401.172 65.6406C401.172 63.4051 400.725 61.4883 399.747 59.9671L398.065 61.0486C398.775 62.1523 399.172 63.6574 399.172 65.6406H401.172ZM399.755 59.9787C398.813 58.4679 397.536 57.5156 395.906 57.5156V59.5156C396.62 59.5156 397.343 59.8915 398.058 61.0369L399.755 59.9787ZM395.906 57.5156C394.741 57.5156 393.692 57.7198 392.814 58.1912C391.919 58.6714 391.258 59.3995 390.843 60.3378L392.672 61.1465C392.914 60.6005 393.272 60.2153 393.76 59.9534C394.265 59.6825 394.962 59.5156 395.906 59.5156V57.5156ZM390.841 60.3424C390.123 61.9879 389.797 64.1266 389.797 66.6953H391.797C391.797 64.264 392.111 62.4339 392.674 61.142L390.841 60.3424Z" fill="black" mask="url(#path-15-outside-4_220_79)"/>
<path d="M319.663 53.5766C320.237 52.5587 321.703 52.5587 322.277 53.5766L325.64 59.5428C325.996 60.1758 326.611 60.6222 327.323 60.7659L334.036 62.1205C335.182 62.3516 335.635 63.7458 334.844 64.606L330.209 69.6479C329.717 70.1828 329.482 70.9051 329.566 71.6269L330.352 78.4303C330.486 79.5911 329.3 80.4527 328.238 79.9664L322.01 77.1163C321.35 76.8139 320.59 76.8139 319.93 77.1163L313.702 79.9664C312.64 80.4527 311.454 79.5911 311.588 78.4303L312.374 71.6269C312.458 70.9051 312.223 70.1828 311.731 69.6479L307.096 64.606C306.305 63.7458 306.758 62.3516 307.904 62.1205L314.617 60.7659C315.329 60.6222 315.944 60.1758 316.3 59.5428L319.663 53.5766Z" fill="white" stroke="black"/>
<path d="M319.905 63.897C320.15 62.7475 321.79 62.7475 322.035 63.897C322.257 64.9424 323.233 65.6512 324.296 65.5397C325.465 65.4171 325.972 66.9774 324.954 67.5652C324.029 68.0998 323.656 69.2466 324.09 70.223C324.568 71.2968 323.241 72.2611 322.367 71.4749C321.573 70.7599 320.367 70.7599 319.573 71.4749C318.699 72.2611 317.372 71.2968 317.85 70.223C318.284 69.2466 317.912 68.0998 316.986 67.5652C315.968 66.9774 316.475 65.4171 317.644 65.5397C318.707 65.6512 319.683 64.9424 319.905 63.897Z" fill="#D9D9D9" stroke="black"/>
<defs>
<linearGradient id="paint0_linear_220_79" x1="266" y1="0" x2="266" y2="200" gradientUnits="userSpaceOnUse">
<stop stop-color="#DDDDDD"/>
<stop offset="0.5" stop-color="white"/>
<stop offset="1" stop-color="#DDDDDD"/>
</linearGradient>
</defs>
</svg>
